<?xml version="1.0" standalone="no"?>
<!DOCTYPE svg PUBLIC "-//W3C//DTD SVG 20010904//EN"
 "http://www.w3.org/TR/2001/REC-SVG-20010904/DTD/svg10.dtd">
<svg version="1.0" xmlns="http://www.w3.org/2000/svg"
 width="390.000000pt" height="390.000000pt" viewBox="0 0 390.000000 390.000000"
 preserveAspectRatio="xMidYMid meet">
<metadata>
Created by potrace 1.11, written by Peter Selinger 2001-2013
</metadata>
<g transform="translate(0.000000,390.000000) scale(0.100000,-0.100000)"
fill="#000000" stroke="none">
<path d="M1858 3335 c-1 -1 -34 -5 -71 -9 -87 -8 -252 -47 -340 -80 -123 -47
-193 -85 -344 -187 -48 -33 -170 -146 -228 -212 -33 -38 -65 -74 -72 -81 -29
-32 -118 -179 -154 -252 -39 -82 -85 -212 -95 -267 -3 -17 -7 -33 -9 -36 -2
-4 -6 -27 -10 -51 -3 -25 -9 -61 -13 -80 -9 -48 -9 -343 0 -410 18 -132 34
-201 75 -320 22 -64 73 -172 91 -192 8 -10 12 -18 9 -18 -9 0 78 -125 138
-200 144 -176 403 -364 580 -420 22 -7 45 -16 50 -20 13 -9 149 -44 224 -56
18 -3 43 -8 55 -11 11 -2 93 -6 181 -8 235 -4 371 14 560 77 232 77 457 237
598 426 23 31 44 59 47 62 7 7 24 34 70 115 73 128 146 326 184 495 15 66 20
97 32 183 l7 47 -134 1 c-74 1 -183 3 -244 4 -497 16 -484 16 -489 -8 -29
-151 -43 -204 -76 -272 -94 -199 -262 -303 -500 -310 -183 -5 -320 46 -438
164 -116 116 -169 242 -179 422 -11 209 49 380 180 512 118 119 248 173 414
174 168 1 289 -43 393 -145 61 -59 137 -178 160 -247 17 -54 26 -63 58 -59 15
1 72 5 127 9 132 8 226 14 305 20 36 3 108 7 160 11 52 3 118 7 145 9 28 2 64
4 81 4 32 1 32 1 23 39 -32 141 -117 362 -187 487 -71 125 -186 268 -283 350
-269 227 -550 332 -916 340 -89 2 -163 2 -165 0z"/>
</g>
</svg>
