<?xml version="1.0" encoding="UTF-8" standalone="no"?>
<!-- Created with Inkscape (http://www.inkscape.org/) -->

<svg
   xmlns:dc="http://purl.org/dc/elements/1.1/"
   xmlns:cc="http://creativecommons.org/ns#"
   xmlns:rdf="http://www.w3.org/1999/02/22-rdf-syntax-ns#"
   xmlns:svg="http://www.w3.org/2000/svg"
   xmlns="http://www.w3.org/2000/svg"
   version="1.1"
   width="1260"
   height="448.15625"
   id="svg2">
  <defs
     id="defs4">
    <clipPath
       id="clipPath3265">
      <path
         d="m 655,359 11,0 0,110 -11,0 0,-110 z"
         id="path3267" />
    </clipPath>
    <clipPath
       id="clipPath3255">
      <path
         d="m 655,469 11,0 0,-110 -11,0 0,110 z"
         id="path3257" />
    </clipPath>
    <clipPath
       id="clipPath3215">
      <path
         d="m 302,344 477,0 0,258 -477,0 0,-258 z"
         id="path3217" />
    </clipPath>
    <clipPath
       id="clipPath3205">
      <path
         d="m 302,602 477,0 0,-258 -477,0 0,258 z"
         id="path3207" />
    </clipPath>
    <clipPath
       id="clipPath3175">
      <path
         d="m 569,420 51,0 0,23 -51,0 0,-23 z"
         id="path3177" />
    </clipPath>
    <clipPath
       id="clipPath3165">
      <path
         d="m 569,443 51,0 0,-23 -51,0 0,23 z"
         id="path3167" />
    </clipPath>
    <clipPath
       id="clipPath3155">
      <path
         d="m 569,420 51,0 0,23 -51,0 0,-23 z"
         id="path3157" />
    </clipPath>
    <clipPath
       id="clipPath3145">
      <path
         d="m 570,441 50,0 0,-21 -50,0 0,21 z"
         id="path3147" />
    </clipPath>
    <clipPath
       id="clipPath3119">
      <path
         d="m 422,429 84,0 0,37 -84,0 0,-37 z"
         id="path3121" />
    </clipPath>
    <clipPath
       id="clipPath3109">
      <path
         d="m 422,466 84,0 0,-37 -84,0 0,37 z"
         id="path3111" />
    </clipPath>
    <clipPath
       id="clipPath3099">
      <path
         d="m 422,429 84,0 0,37 -84,0 0,-37 z"
         id="path3101" />
    </clipPath>
    <clipPath
       id="clipPath3089">
      <path
         d="m 422,466 83,0 0,-37 -83,0 0,37 z"
         id="path3091" />
    </clipPath>
    <clipPath
       id="clipPath3073">
      <path
         d="m 44,355 588,0 0,205 -588,0 0,-205 z"
         id="path3075" />
    </clipPath>
    <clipPath
       id="clipPath3063">
      <path
         d="m 44,560 588,0 0,-205 -588,0 0,205 z"
         id="path3065" />
    </clipPath>
    <clipPath
       id="clipPath3039">
      <path
         d="m 173,271 845,0 0,229 -845,0 0,-229 z"
         id="path3041" />
    </clipPath>
    <clipPath
       id="clipPath3029">
      <path
         d="m 173,500 845,0 0,-229 -845,0 0,229 z"
         id="path3031" />
    </clipPath>
    <clipPath
       id="clipPath3003">
      <path
         d="m 0,0 1024,0 0,768 L 0,768 0,0 z"
         id="path3005" />
    </clipPath>
  </defs>
  <metadata
     id="metadata7">
    <rdf:RDF>
      <cc:Work
         rdf:about="">
        <dc:format>image/svg+xml</dc:format>
        <dc:type
           rdf:resource="http://purl.org/dc/dcmitype/StillImage" />
        <dc:title></dc:title>
      </cc:Work>
    </rdf:RDF>
  </metadata>
  <g
     transform="translate(253.75,-224.875)"
     id="layer1">
    <path
       d="m -252.5,226.1122 276.25,0 0,328.75 -276.25,0 0,-328.75 z"
       id="path3011"
       style="fill:#89c2f2;fill-opacity:1;fill-rule:nonzero;stroke:none" />
    <path
       d="m -252.5,226.1122 276.25,0 0,328.75 -276.25,0 0,-328.75 z"
       id="path3013"
       style="fill:none;stroke:#89c2f2;stroke-width:2.5;stroke-linecap:butt;stroke-linejoin:miter;stroke-miterlimit:4;stroke-opacity:0.68999999;stroke-dasharray:none" />
    <path
       d="m 427.33375,388.16345 c 69.46375,5.67875 119.6925,66.18125 112.1875,135.13125 -7.505,68.945 -69.8975,120.235 -139.355,114.55125 -69.46375,-5.68375 -119.6925,-66.18625 -112.1875,-135.1325 7.5,-68.95 69.8925,-120.23375 139.355,-114.55"
       id="path3015"
       style="fill:#89c2f2;fill-opacity:1;fill-rule:nonzero;stroke:#2e73b3;stroke-width:2.5;stroke-linecap:butt;stroke-linejoin:miter;stroke-miterlimit:4;stroke-opacity:1;stroke-dasharray:5, 5;stroke-dashoffset:0" />
    <path
       d="m 276.25,363.6122 278.75,0 0,182.5 -278.75,0 0,-182.5 z"
       id="path3017"
       style="fill:#ffffff;fill-opacity:1;fill-rule:nonzero;stroke:none" />
    <path
       d="M 203.68625,486.5422 201.9675,485.8047 57.5,423.6122"
       id="path3019"
       style="fill:none;stroke:#011004;stroke-width:3.75;stroke-linecap:butt;stroke-linejoin:miter;stroke-miterlimit:4;stroke-opacity:1;stroke-dasharray:none" />
    <path
       d="m 194.9175,491.7522 18.4175,-1.055 -11.895,-14.10125 0.5275,9.20875 -7.05,5.9475 z"
       id="path3021"
       style="fill:#011004;fill-opacity:1;fill-rule:nonzero;stroke:none" />
    <path
       d="m -10.87375,316.4297 c 2.53375,-2.725 2.53375,-7.14875 0,-9.8775 -2.53,-2.725 -6.63625,-2.725 -9.17,0 -2.53375,2.72875 -2.53375,7.1525 0,9.8775 2.53375,2.73 6.64,2.73 9.17,0"
       id="path3023"
       style="fill:#00a732;fill-opacity:1;fill-rule:nonzero;stroke:none" />
    <path
       d="M -47.44125,657.82595 514.37,430.3897 l 491.4012,0 L 428.145,671.7622 -47.44125,657.82595 z"
       id="path3045"
       style="fill:none;stroke:#000000;stroke-width:2.5;stroke-linecap:butt;stroke-linejoin:miter;stroke-miterlimit:4;stroke-opacity:1;stroke-dasharray:none" />
    <path
       d="m 699.32625,506.5122 1.1375,-0.5075 100.68875,-45.25875"
       id="path3047"
       style="fill:none;stroke:#0a0a0a;stroke-width:2.5;stroke-linecap:butt;stroke-linejoin:miter;stroke-miterlimit:4;stroke-opacity:1;stroke-dasharray:none" />
    <path
       d="m 700.7425,499.30095 -8.48625,10.39 13.4075,0.5525 -5.2,-4.23875 0.27875,-6.70375 z"
       id="path3049"
       style="fill:#0a0a0a;fill-opacity:1;fill-rule:nonzero;stroke:none" />
    <path
       d="m 890.13125,460.9847 -89.50125,0"
       id="path3051"
       style="fill:none;stroke:#0a0a0a;stroke-width:2.5;stroke-linecap:butt;stroke-linejoin:miter;stroke-miterlimit:4;stroke-opacity:1;stroke-dasharray:none" />
    <path
       d="m 885.88375,466.98595 11.9975,-6.00125 -11.9975,-5.995 2.9975,5.995 -2.9975,6.00125 z"
       id="path3053"
       style="fill:#0a0a0a;fill-opacity:1;fill-rule:nonzero;stroke:none" />
    <path
       d="m 800.645,395.43345 0,64.99"
       id="path3055"
       style="fill:none;stroke:#000000;stroke-width:2.5;stroke-linecap:butt;stroke-linejoin:miter;stroke-miterlimit:4;stroke-opacity:1;stroke-dasharray:none" />
    <path
       d="m 806.645,399.68595 -6,-12.00125 -6.00125,12.00125 6.00125,-3.0025 6,3.0025 z"
       id="path3057"
       style="fill:#000000;fill-opacity:1;fill-rule:nonzero;stroke:none" />
    <path
       d="m 522.55875,471.3472 c 2.685,-2.68625 2.685,-7.03625 0,-9.7225 -2.68625,-2.685 -7.04125,-2.685 -9.72625,0 -2.68125,2.68625 -2.68125,7.03625 0,9.7225 2.685,2.685 7.04,2.685 9.72625,0"
       id="path3079"
       style="fill:#00a732;fill-opacity:1;fill-rule:nonzero;stroke:none" />
    <path
       d="m 516.25,478.6122 -15,88.75"
       id="path3081"
       style="fill:none;stroke:#00a732;stroke-width:3.75;stroke-linecap:butt;stroke-linejoin:miter;stroke-miterlimit:4;stroke-opacity:1;stroke-dasharray:7.5, 7.5;stroke-dashoffset:0" />
    <path
       d="m -58.06625,340.85345 c 34.2525,34.2525 34.39,89.65875 0.3025,123.745 -34.08625,34.0875 -89.4875,33.95 -123.745,-0.3025 -34.2525,-34.2525 -34.39,-89.65375 -0.3025,-123.745 34.09125,-34.0875 89.4925,-33.95 123.745,0.3025"
       id="path3083"
       style="fill:none;stroke:#ad3e00;stroke-width:3.75;stroke-linecap:butt;stroke-linejoin:miter;stroke-miterlimit:4;stroke-opacity:1;stroke-dasharray:none" />
    <text
       x="260.29089"
       y="464.422"
       id="text3125"
       style="font-size:15px">
      <tspan
         x="260.29089"
         y="464.422"
         id="tspan3127"
         style="font-size:44.83169937px;font-variant:normal;font-weight:normal;writing-mode:lr-tb;fill:#000000;fill-opacity:1;fill-rule:nonzero;stroke:none;font-family:DejaVu Sans;-inkscape-font-specification:DejaVuSans">Ψ</tspan>
    </text>
    <text
       x="295.16995"
       y="464.422"
       id="text3129"
       style="font-size:15px">
      <tspan
         x="295.16995"
         y="464.422"
         id="tspan3131"
         style="font-size:44.83169937px;font-variant:normal;font-weight:normal;writing-mode:lr-tb;fill:#000000;fill-opacity:1;fill-rule:nonzero;stroke:none;font-family:cmr10;-inkscape-font-specification:Cmr10">(</tspan>
    </text>
    <text
       x="312.56464"
       y="464.422"
       id="text3133"
       style="font-size:15px">
      <tspan
         x="312.56464"
         y="464.422"
         id="tspan3135"
         style="font-size:44.83169937px;font-variant:normal;font-weight:normal;writing-mode:lr-tb;fill:#000000;fill-opacity:1;fill-rule:nonzero;stroke:none;font-family:cmmi10;-inkscape-font-specification:Cmmi10">X</tspan>
    </text>
    <text
       x="353.22699"
       y="464.422"
       id="text3137"
       style="font-size:15px">
      <tspan
         x="353.22699"
         y="464.422"
         id="tspan3139"
         style="font-size:44.83169937px;font-variant:normal;font-weight:normal;writing-mode:lr-tb;fill:#000000;fill-opacity:1;fill-rule:nonzero;stroke:none;font-family:cmr10;-inkscape-font-specification:Cmr10">)</tspan>
    </text>
    <text
       x="445.84146"
       y="480.9874"
       transform="scale(1.0005412,0.99945913)"
       id="text3181"
       style="font-size:14.99188709px">
      <tspan
         x="445.84146"
         y="480.9874"
         id="tspan3183"
         style="font-size:25.45878601px;font-variant:normal;font-weight:normal;writing-mode:lr-tb;fill:#000000;fill-opacity:1;fill-rule:nonzero;stroke:none;font-family:DejaVu Sans;-inkscape-font-specification:DejaVuSans">Ψ</tspan>
    </text>
    <text
       x="465.64841"
       y="480.9874"
       transform="scale(1.0005412,0.99945913)"
       id="text3185"
       style="font-size:14.99188709px">
      <tspan
         x="465.64841"
         y="480.9874"
         id="tspan3187"
         style="font-size:25.45878601px;font-variant:normal;font-weight:normal;writing-mode:lr-tb;fill:#000000;fill-opacity:1;fill-rule:nonzero;stroke:none;font-family:cmr10;-inkscape-font-specification:Cmr10">(</tspan>
    </text>
    <text
       x="475.52643"
       y="480.9874"
       transform="scale(1.0005412,0.99945913)"
       id="text3189"
       style="font-size:14.99188709px">
      <tspan
         x="475.52643"
         y="480.9874"
         id="tspan3191"
         style="font-size:25.45878601px;font-variant:normal;font-weight:normal;writing-mode:lr-tb;fill:#000000;fill-opacity:1;fill-rule:nonzero;stroke:none;font-family:cmmi10;-inkscape-font-specification:Cmmi10">x</tspan>
    </text>
    <text
       x="490.09393"
       y="470.47714"
       transform="scale(1.0005412,0.99945913)"
       id="text3193"
       style="font-size:14.99188709px">
      <tspan
         x="490.09393"
         y="470.47714"
         id="tspan3195"
         style="font-size:17.82109833px;font-style:oblique;font-variant:normal;writing-mode:lr-tb;fill:#000000;fill-opacity:1;fill-rule:nonzero;stroke:none;font-family:DejaVu Sans;-inkscape-font-specification:DejaVuSans-Oblique">∗</tspan>
    </text>
    <text
       x="501.79785"
       y="480.9874"
       transform="scale(1.0005412,0.99945913)"
       id="text3197"
       style="font-size:14.99188709px">
      <tspan
         x="501.79785"
         y="480.9874"
         id="tspan3199"
         style="font-size:25.45878601px;font-variant:normal;font-weight:normal;writing-mode:lr-tb;fill:#000000;fill-opacity:1;fill-rule:nonzero;stroke:none;font-family:cmr10;-inkscape-font-specification:Cmr10">)</tspan>
    </text>
    <path
       d="M 217.71,335.73595 336.93875,294.2222 408.4625,499.62345 289.23375,541.14095 217.71,335.73595 z"
       id="path3221"
       style="fill:#89c2f2;fill-opacity:1;fill-rule:nonzero;stroke:none" />
    <path
       d="M 217.71,335.73595 336.93875,294.2222 408.4625,499.62345 289.23375,541.14095 217.71,335.73595 z"
       id="path3223"
       style="fill:none;stroke:#89c2f2;stroke-width:2.5;stroke-linecap:butt;stroke-linejoin:miter;stroke-miterlimit:4;stroke-opacity:0.68999999;stroke-dasharray:none" />
    <path
       d="M 532.12375,548.7047 406.3275,503.26595 480.225,298.7047 l 125.795,45.44 -73.89625,204.56 z"
       id="path3225"
       style="fill:#89c2f2;fill-opacity:1;fill-rule:nonzero;stroke:none" />
    <path
       d="M 532.12375,548.7047 406.3275,503.26595 480.225,298.7047 l 125.795,45.44 -73.89625,204.56 z"
       id="path3227"
       style="fill:none;stroke:#89c2f2;stroke-width:2.5;stroke-linecap:butt;stroke-linejoin:miter;stroke-miterlimit:4;stroke-opacity:0.68999999;stroke-dasharray:none" />
    <path
       d="m 498.0475,515.4672 c 47.1425,14.86875 47.20125,38.78 0.12625,53.41875 -47.07,14.63375 -123.4425,14.4475 -170.58625,-0.415 -47.14375,-14.86875 -47.20125,-38.78 -0.13125,-53.41875 47.07,-14.63375 123.4475,-14.4475 170.59125,0.415"
       id="path3229"
       style="fill:#ffffff;fill-opacity:1;fill-rule:nonzero;stroke:none" />
    <path
       d="m 325.13125,290.8972 158.75,0 0,202.5 -158.75,0 0,-202.5 z"
       id="path3231"
       style="fill:#89c2f2;fill-opacity:1;fill-rule:nonzero;stroke:none" />
    <path
       d="m 325.13125,290.8972 158.75,0 0,202.5 -158.75,0 0,-202.5 z"
       id="path3233"
       style="fill:none;stroke:#89c2f2;stroke-width:2.5;stroke-linecap:butt;stroke-linejoin:miter;stroke-miterlimit:4;stroke-opacity:0.68999999;stroke-dasharray:none" />
    <path
       d="m 538.92125,357.9672 c 69.84375,14.815 69.9025,38.56 0.13125,53.0325 -69.77,14.4775 -182.94875,14.2 -252.7925,-0.615 -69.83875,-14.815 -69.8975,-38.56 -0.1275,-53.0325 69.77125,-14.4725 182.945,-14.19875 252.78875,0.615"
       id="path3235"
       style="fill:none;stroke:#2e73b3;stroke-width:2.5;stroke-linecap:butt;stroke-linejoin:miter;stroke-miterlimit:4;stroke-opacity:1;stroke-dasharray:none" />
    <path
       d="m 193.75,286.1122 435,0 0,98.75 -435,0 0,-98.75 z"
       id="path3237"
       style="fill:#89c2f2;fill-opacity:1;fill-rule:nonzero;stroke:none" />
    <path
       d="m 538.92125,357.84095 c 69.84375,14.81375 69.9025,38.555 0.12625,53.0325 -69.77,14.4725 -182.94375,14.19875 -252.7875,-0.61625 -69.83875,-14.81375 -69.8975,-38.55875 -0.1275,-53.03125 69.77125,-14.4775 182.945,-14.2 252.78875,0.615"
       id="path3239"
       style="fill:none;stroke:#2e73b3;stroke-width:2.5;stroke-linecap:round;stroke-linejoin:miter;stroke-miterlimit:4;stroke-opacity:1;stroke-dasharray:0.0025, 7.5;stroke-dashoffset:0" />
    <path
       d="m 198.125,286.1122 94.375,263.75"
       id="path3241"
       style="fill:none;stroke:#2e73b3;stroke-width:2.5;stroke-linecap:butt;stroke-linejoin:miter;stroke-miterlimit:4;stroke-opacity:1;stroke-dasharray:none" />
    <path
       d="M 628.75,285.4872 532.5,552.3622"
       id="path3243"
       style="fill:none;stroke:#2e73b3;stroke-width:2.5;stroke-linecap:butt;stroke-linejoin:miter;stroke-miterlimit:4;stroke-opacity:1;stroke-dasharray:none" />
    <path
       d="m 113.67625,286.49345 72.8275,-26.50875 55.57625,152.7 -72.8275,26.50875 -55.57625,-152.7 z"
       id="path3245"
       style="fill:#ffffff;fill-opacity:1;fill-rule:nonzero;stroke:none" />
    <path
       d="M 708.56,296.2247 635.7425,269.69595 592.1,389.49095 664.9175,416.0197 708.56,296.2247 z"
       id="path3247"
       style="fill:#ffffff;fill-opacity:1;fill-rule:nonzero;stroke:none" />
    <path
       d="m 498.4475,515.1747 c 47.14375,14.86875 47.2025,38.77875 0.12625,53.4175 -47.07,14.63375 -123.4425,14.44875 -170.585,-0.42 -47.14375,-14.8625 -47.2025,-38.77875 -0.1325,-53.4125 47.07,-14.63375 123.4475,-14.44875 170.59125,0.415"
       id="path3249"
       style="fill:#89c2f2;fill-opacity:1;fill-rule:nonzero;stroke:#ad3e00;stroke-width:3.75;stroke-linecap:butt;stroke-linejoin:miter;stroke-miterlimit:4;stroke-opacity:1;stroke-dasharray:none" />
    <path
       d="m 564.41875,428.12345 c 2.44125,2.68625 2.44125,7.04125 0,9.7275 -2.44125,2.68 -6.39625,2.68 -8.8375,0 -2.44125,-2.68625 -2.44125,-7.04125 0,-9.7275 2.44125,-2.68 6.39625,-2.68 8.8375,0"
       id="path3271"
       style="fill:#00a732;fill-opacity:1;fill-rule:nonzero;stroke:none" />
    <path
       d="m 560,434.8622 0,122.5"
       id="path3273"
       style="fill:none;stroke:#00a732;stroke-width:3.75;stroke-linecap:butt;stroke-linejoin:miter;stroke-miterlimit:4;stroke-opacity:1;stroke-dasharray:7.5, 7.5;stroke-dashoffset:0" />
    <path
       d="m 565.66875,551.87345 c 2.44125,2.68625 2.44125,7.04125 0,9.7275 -2.44125,2.68 -6.39625,2.68 -8.8375,0 -2.44125,-2.68625 -2.44125,-7.04125 0,-9.7275 2.44125,-2.68 6.39625,-2.68 8.8375,0"
       id="path3275"
       style="fill:#00a732;fill-opacity:1;fill-rule:nonzero;stroke:none" />
    <path
       d="m 156.20625,407.9097 0,-0.0637 0.01,-0.025 0,-0.0537 0.0238,-0.0487 0,-0.0337 0.01,-0.02 0,-0.0337 0.01,-0.03 0.01,-0.0337 0.009,-0.0638 0.025,-0.0637 0,-0.0337 0.01,-0.0188 0.01,-0.03 0,-0.0337 0.009,-0.02 0.01,-0.0238 0,-0.02 0.01,-0.02 0,-0.0438 0.015,0 0,-0.0437 c 0,-0.0437 0,-0.5325 -0.63,-0.5325 -0.5325,0 -0.58625,0.17125 -0.79625,1.065 l -3.0718,12.22595 c -8.4175,0.26375 -16.21125,7.31 -16.21125,14.51625 0,5.03 3.69625,9.21875 10.16125,9.58 l 0.26375,-1.15625 c -3.16375,-0.15125 -6.9925,-2.0125 -6.9925,-7.305 0,-6.3675 4.57125,-13.775 12.45625,-14.45875 l -5.46375,21.76375 -0.26375,1.15625 c -0.415,1.64625 -0.77625,3.35 -1.21,4.98625 -0.63,2.495 -1.1575,4.50625 -1.1575,4.6675 0,0.5175 0.36125,0.58125 0.625,0.58125 0.26375,0 0.38,-0.0638 0.5325,-0.21 0.0925,-0.1075 0.43375,-1.3825 0.585,-2.12875 l 2.0075,-7.89625 0.26875,-1.15625 5.45875,-21.76375 c 4.01875,0.20625 7.04125,2.6475 7.04125,7.315 0,6.24 -4.55125,13.81875 -12.5,14.44875 l -0.26875,1.15625 c 8.535,-0.2675 16.21,-7.3975 16.21,-14.50125 0,-4.175 -2.8075,-9.0675 -10.17,-9.595 l 2.96375,-12.00125 z"
       id="path3279"
       style="fill:#000000;fill-opacity:1;fill-rule:nonzero;stroke:none" />
    <path
       d="m 246.055,301.57595 0,-0.0637 0.0137,-0.0188 0,-0.0537 0.01,-0.025 0.01,-0.0288 0,-0.035 0.01,-0.0188 0,-0.035 0.01,-0.0288 0.01,-0.0337 0.0137,-0.0637 0.02,-0.0638 0,-0.0288 0.01,-0.025 0.01,-0.0288 0,-0.035 0.009,-0.0188 0.015,-0.02 0,-0.0237 0.01,-0.02 0,-0.0437 0.01,0 0,-0.0437 c 0,-0.04 0,-0.5275 -0.625,-0.5275 -0.5325,0 -0.58625,0.16625 -0.80125,1.05875 l -3.07125,12.2275 c -8.4175,0.26375 -16.21125,7.31375 -16.21125,14.52125 0,5.02375 3.70125,9.21375 10.16125,9.575 l 0.26875,-1.1575 c -3.16875,-0.15125 -6.9975,-2.01125 -6.9975,-7.305 0,-6.36625 4.57125,-13.77375 12.46125,-14.4575 l -5.46375,21.7625 -0.26875,1.1575 c -0.41,1.65 -0.77125,3.35 -1.21125,4.985 -0.625,2.5 -1.15625,4.5075 -1.15625,4.66875 0,0.5175 0.36125,0.585 0.625,0.585 0.2675,0 0.385,-0.0675 0.53125,-0.21375 0.0987,-0.1075 0.44,-1.3825 0.58625,-2.125 l 2.0075,-7.9 0.2675,-1.1575 5.465,-21.7625 c 4.0175,0.205 7.035,2.65125 7.035,7.315 0,6.24 -4.55,13.8175 -12.5,14.4475 l -0.2675,1.1575 c 8.54,-0.26375 16.21,-7.3975 16.21,-14.4975 0,-4.17875 -2.8025,-9.0675 -10.17,-9.59875 l 2.96375,-12.0025 z"
       id="path3281"
       style="fill:#000000;fill-opacity:1;fill-rule:nonzero;stroke:none" />
    <path
       d="m 271.93875,349.7497 0,-0.0825 -0.01,-0.01 0,-0.025 -0.01,-0.009 0,-0.02 -0.01,-0.025 -0.009,-0.0187 -0.025,-0.02 -0.01,-0.0337 -0.0188,-0.02 -0.01,-0.0337 -0.035,-0.03 -0.0187,-0.0337 -0.035,-0.0288 -0.0288,-0.045 -0.015,-0.0188 -0.0188,-0.025 -0.01,-0.0188 -0.0437,-0.0437 -0.02,-0.03 -0.02,-0.0238 -0.0337,-0.02 -0.02,-0.0337 -0.0238,-0.02 -0.0288,-0.0337 -0.025,-0.03 -0.0288,-0.0337 -0.035,-0.03 -0.0188,-0.0337 -0.035,-0.0288 -0.0387,-0.035 -0.0337,-0.0288 -0.03,-0.0437 -0.0337,-0.03 -0.0437,-0.0437 -0.04,-0.0337 -0.0337,-0.0387 -0.0387,-0.045 c -6.61625,-6.67375 -8.315,-16.67875 -8.315,-24.78 0,-9.21375 2.02125,-18.4425 8.525,-25.04375 0.67875,-0.65 0.67875,-0.7525 0.67875,-0.9125 0,-0.37125 -0.2,-0.5225 -0.5075,-0.5225 -0.5325,0 -5.30375,3.59375 -8.42875,10.3125 -2.7,5.835 -3.34,11.71375 -3.34,16.16625 0,4.13625 0.58625,10.5275 3.49625,16.51875 3.16875,6.51875 7.74,9.95125 8.2725,9.95125 0.3075,0 0.5075,-0.14625 0.5075,-0.5325 z"
       id="path3283"
       style="fill:#000000;fill-opacity:1;fill-rule:nonzero;stroke:none" />
    <path
       d="m 313.09125,302.1522 0.0288,-0.13125 0.01,-0.04 0.01,-0.0437 0.0138,-0.0538 0.01,-0.0437 0.02,-0.0487 0.01,-0.0437 0.0137,-0.0538 0,-0.0537 0.02,-0.1075 0,-0.0637 0.01,-0.0538 0,-0.0637 c 0,-0.4775 -0.26375,-0.4775 -1.31875,-0.4775 l -22.35375,0 c -1.26375,0 -1.3275,0.0538 -1.635,1.06375 l -2.915,9.53625 c -0.1175,0.26375 -0.17125,0.625 -0.17125,0.7425 0,0.0537 0,0.58625 0.65875,0.58625 0.46,0 0.57625,-0.38125 0.67,-0.5325 2.02125,-6.26 4.775,-9.74625 13.02125,-9.74625 l 8.64375,0 -29.595,33.1 c 0,0.045 -0.22,0.79625 -0.22,0.9475 0,0.47875 0.37125,0.47875 1.3275,0.47875 l 23.0325,0 c 1.265,0 1.31875,-0.0537 1.65125,-1.065 l 3.75,-11.69375 c 0.0537,-0.21 0.22375,-0.59625 0.22375,-0.79625 0,-0.26375 -0.22375,-0.585 -0.7025,-0.585 -0.46875,0 -0.5325,0.205 -0.89375,1.3175 -2.32375,7.2075 -4.86875,11.025 -13.8725,11.025 l -9.0675,0 29.62,-33.1 z"
       id="path3285"
       style="fill:#000000;fill-opacity:1;fill-rule:nonzero;stroke:none" />
    <path
       d="m 330.17125,323.8122 0,-0.805 -0.01,-0.415 -0.02,-0.435 -0.0437,-0.89375 -0.0638,-0.9375 -0.0875,-0.97625 -0.1175,-1.01125 -0.13625,-1.03 -0.17125,-1.07375 -0.21,-1.085 -0.24375,-1.09375 -0.28875,-1.1175 -0.31625,-1.1275 -0.37625,-1.13375 -0.415,-1.1375 -0.23,-0.56625 -0.23375,-0.56125 -0.25875,-0.56625 -0.26375,-0.56125 c -3.17,-6.505 -7.72,-9.95125 -8.2475,-9.95125 -0.3225,0 -0.5325,0.205 -0.5325,0.5225 0,0.16 0,0.2625 0.98625,1.22 5.2,5.23 8.2275,13.6625 8.2275,24.73625 0,9.0475 -1.9675,18.36875 -8.535,25.04375 -0.67875,0.63 -0.67875,0.7475 -0.67875,0.89375 0,0.3175 0.21,0.5325 0.5325,0.5325 0.5275,0 5.26875,-3.60375 8.4175,-10.3225 2.69125,-5.815 3.31625,-11.69375 3.31625,-16.1475 z"
       id="path3287"
       style="fill:#000000;fill-opacity:1;fill-rule:nonzero;stroke:none" />
    <path
       d="m 479.985,408.97345 0,-0.0688 0.01,-0.0188 0,-0.0537 0.015,-0.02 0.01,-0.0337 0,-0.03 0.009,-0.0238 0,-0.03 0.01,-0.0337 0.01,-0.0288 0.01,-0.0638 0.0238,-0.0637 0,-0.0337 0.01,-0.02 0.01,-0.0337 0,-0.03 0.01,-0.0238 0.015,-0.02 0,-0.0188 0.009,-0.025 0,-0.0387 0.01,0 0,-0.0437 c 0,-0.045 0,-0.5325 -0.63,-0.5325 -0.5275,0 -0.58125,0.17125 -0.795,1.06375 l -3.07125,12.2225 c -8.41875,0.26875 -16.21125,7.31375 -16.21125,14.52125 0,5.02875 3.70125,9.21875 10.16125,9.58 l 0.26875,-1.1625 c -3.17,-0.14625 -6.9975,-2.00625 -6.9975,-7.3 0,-6.36625 4.57,-13.77875 12.46125,-14.4575 l -5.46375,21.7575 -0.26875,1.1625 c -0.415,1.645 -0.77625,3.345 -1.21125,4.985 -0.625,2.495 -1.1575,4.5075 -1.1575,4.66375 0,0.5225 0.36125,0.585 0.625,0.585 0.26875,0 0.38625,-0.0625 0.5325,-0.20875 0.0975,-0.1075 0.435,-1.3825 0.58625,-2.13 l 2.00625,-7.895 0.26875,-1.1625 5.46375,-21.7575 c 4.01875,0.2 7.03625,2.64625 7.03625,7.315 0,6.24 -4.55125,13.8175 -12.5,14.4425 l -0.26875,1.1625 c 8.535,-0.26875 16.21125,-7.4025 16.21125,-14.5025 0,-4.17375 -2.8025,-9.0675 -10.17125,-9.59875 l 2.96375,-11.9975 z"
       id="path3289"
       style="fill:#000000;fill-opacity:1;fill-rule:nonzero;stroke:none" />
    <path
       d="m 505.86875,457.1472 0,-0.0875 -0.009,-0.01 0,-0.02 -0.01,-0.009 0,-0.025 -0.02,-0.0387 -0.0238,-0.025 -0.01,-0.0288 -0.02,-0.025 -0.015,-0.0288 -0.0288,-0.035 -0.02,-0.0288 -0.0337,-0.0337 -0.0288,-0.0437 -0.015,-0.02 -0.02,-0.02 -0.01,-0.0238 -0.0238,-0.02 -0.02,-0.0188 -0.0187,-0.035 -0.025,-0.0187 -0.0288,-0.025 -0.02,-0.0288 -0.025,-0.02 -0.0288,-0.0337 -0.025,-0.035 -0.0625,-0.0625 -0.02,-0.03 -0.0337,-0.0337 -0.0387,-0.03 -0.035,-0.0337 -0.0288,-0.0387 -0.0788,-0.0788 -0.0387,-0.0288 -0.0337,-0.0437 -0.045,-0.045 c -6.61125,-6.67375 -8.31,-16.67375 -8.31,-24.775 0,-9.21875 2.02125,-18.4425 8.525,-25.04375 0.67875,-0.65 0.67875,-0.75625 0.67875,-0.91375 0,-0.375 -0.2,-0.52125 -0.5075,-0.52125 -0.5325,0 -5.3075,3.59375 -8.4325,10.3125 -2.7,5.83375 -3.335,11.71375 -3.335,16.16625 0,4.13625 0.58625,10.5225 3.49625,16.51875 3.16875,6.51375 7.73875,9.95125 8.27125,9.95125 0.3075,0 0.5075,-0.15125 0.5075,-0.5325 z"
       id="path3291"
       style="fill:#000000;fill-opacity:1;fill-rule:nonzero;stroke:none" />
    <path
       d="m 515.9275,440.04345 0.26375,-0.28875 0.25375,-0.26375 0.245,-0.26875 0.24875,-0.25375 0.22875,-0.24375 0.235,-0.235 0.225,-0.23375 0.43375,-0.435 0.205,-0.2 0.21,-0.205 0.19125,-0.2 0.205,-0.18125 0.19,-0.19 0.37125,-0.35125 0.36125,-0.3425 0.36125,-0.3175 0.34125,-0.3075 0.3525,-0.3075 0.67875,-0.595 0.35125,-0.3125 0.35125,-0.29375 c 0,-0.0537 3.27125,-2.86125 5.18625,-4.775 5.03875,-4.93125 6.19625,-7.47125 6.19625,-7.66625 0,-0.5275 -0.48875,-0.5275 -0.58125,-0.5275 -0.36625,0 -0.5325,0.0925 -0.80125,0.57125 -1.5725,2.54 -2.69,3.39375 -3.965,3.39375 -1.28375,0 -1.91375,-0.80125 -2.71,-1.69375 -1,-1.23125 -1.88875,-2.27125 -3.65625,-2.27125 -3.965,0 -6.3875,4.9075 -6.3875,6.02625 0,0.2625 0.14625,0.575 0.625,0.575 0.47875,0 0.58625,-0.2675 0.68375,-0.575 1.02,-2.4475 4.0825,-2.5 4.50625,-2.5 1.10375,0 2.125,0.385 3.335,0.8 2.13,0.79625 2.70125,0.79625 4.0825,0.79625 -1.91375,2.275 -6.3575,6.10375 -7.35375,6.93875 l -4.775,4.4425 c -3.60375,3.555 -5.46375,6.5725 -5.46375,6.94375 0,0.5325 0.5325,0.5325 0.64,0.5325 0.42375,0 0.53125,-0.1075 0.83875,-0.67875 1.23125,-1.86 2.80875,-3.29625 4.5075,-3.29625 1.23,0 1.7625,0.48875 3.07125,2.0075 0.9125,1.1175 1.86,1.9675 3.39375,1.9675 5.23875,0 8.32,-6.72875 8.32,-8.155 0,-0.26375 -0.225,-0.53125 -0.64,-0.53125 -0.47375,0 -0.58125,0.3075 -0.74125,0.6925 -1.21125,3.4425 -4.605,4.43375 -6.3675,4.43375 -1.04,0 -2.0075,-0.3125 -3.115,-0.68375 -1.7975,-0.67875 -2.59375,-0.89375 -3.71125,-0.89375 -0.0925,0 -0.9425,0 -1.42125,0.1525 z"
       id="path3293"
       style="fill:#000000;fill-opacity:1;fill-rule:nonzero;stroke:none" />
    <path
       d="m 551.08875,431.2097 0,-0.395 -0.02,-0.83 -0.009,-0.435 -0.045,-0.89375 -0.0625,-0.9325 -0.0838,-0.98125 -0.11625,-1.00625 -0.1425,-1.035 -0.18,-1.06875 -0.2,-1.085 -0.245,-1.0975 -0.2875,-1.11375 -0.3275,-1.1275 -0.36125,-1.13875 -0.43,-1.1375 -0.21875,-0.56125 -0.235,-0.56625 -0.25375,-0.56125 -0.26875,-0.5625 c -3.17875,-6.50875 -7.725,-9.95 -8.25625,-9.95 -0.30875,0 -0.5325,0.2 -0.5325,0.52125 0,0.1575 0,0.26375 0.99625,1.22125 5.2,5.23 8.2175,13.6575 8.2175,24.73625 0,9.0425 -1.95375,18.36875 -8.535,25.04375 -0.67875,0.625 -0.67875,0.7425 -0.67875,0.89375 0,0.3175 0.22375,0.5325 0.5325,0.5325 0.53125,0 5.2825,-3.60375 8.4175,-10.3225 2.7,-5.815 3.325,-11.69375 3.325,-16.1475 z"
       id="path3295"
       style="fill:#000000;fill-opacity:1;fill-rule:nonzero;stroke:none" />
    <path
       d="m 579.2925,482.9872 -0.61625,0.15625 -0.615,0.19 -0.595,0.225 -0.58625,0.25375 -0.57625,0.27875 -0.56125,0.2975 -0.5525,0.3275 -0.53125,0.35125 -0.5225,0.37125 -0.50875,0.405 -0.5025,0.415 -0.46375,0.435 -0.46875,0.44875 -0.435,0.47875 -0.425,0.48875 -0.405,0.4975 -0.395,0.5225 -0.36125,0.5325 -0.3525,0.54125 -0.31625,0.5525 -0.29875,0.56125 -0.2875,0.56625 -0.25375,0.58125 -0.235,0.58625 -0.2,0.595 -0.18,0.59625 -0.16125,0.605 -0.1275,0.59625 -0.0975,0.605 -0.0738,0.60625 -0.0387,0.605 -0.0238,0.605 c 0,5.08375 3.3925,8.8775 8.37875,8.8775 l 0,-1.1575 c -2.925,0 -5.08375,-2.22125 -5.08375,-6.24 0,-3.34 1.95875,-13.28625 9.1025,-15.2 1.3275,2.42125 2.9,5.2925 2.9,9.09625 0,3.51125 -2.0125,12.34375 -6.91875,12.34375 l 0,1.1575 c 6.19625,0 10.57625,-8.30125 10.57625,-15.605 0,-4.835 -2.105,-7.47125 -3.92625,-9.85375 -1.89,-2.3925 -5.005,-6.3575 -5.005,-8.6825 0,-1.18125 1.04,-2.44625 2.9,-2.44625 1.5975,0 2.6375,0.67875 3.755,1.43625 1.065,0.625 2.12375,1.3275 2.925,1.3275 1.31875,0 2.115,-1.28875 2.115,-2.12375 0,-1.17125 -0.85,-1.31875 -2.76375,-1.7475 -2.745,-0.58125 -3.48625,-0.58125 -4.33625,-0.58125 -4.13625,0 -6.04,2.275 -6.04,5.43875 0,2.88125 1.5425,5.84 3.18875,9.0825 z"
       id="path3297"
       style="fill:#000000;fill-opacity:1;fill-rule:nonzero;stroke:none" />
    <path
       d="m 903.80875,356.04845 0,-0.1175 -0.01,-0.10625 -0.0238,-0.0937 -0.01,-0.1075 -0.03,-0.0975 -0.0338,-0.0825 -0.0287,-0.0975 -0.045,-0.0838 -0.0438,-0.0725 -0.0538,-0.0888 -0.0537,-0.0725 -0.0638,-0.0738 -0.12625,-0.12625 -0.0738,-0.0637 -0.0725,-0.0537 -0.0738,-0.0638 -0.0875,-0.0537 -0.17125,-0.0975 -0.18,-0.0825 -0.20125,-0.0888 -0.2,-0.0625 -0.215,-0.0638 -0.22375,-0.0387 -0.235,-0.045 -0.22,-0.0438 -0.24375,-0.0288 -0.23375,-0.025 -0.245,-0.0188 -0.23375,-0.01 -0.245,-0.01 -0.23375,0 -0.235,-0.015 -0.22375,0 -0.225,0.015 -0.425,0 -0.19,0.01 -20.48375,0 c -2.64625,0 -7.35375,1.5275 -8.2075,4.39875 0.0975,0.3175 0.215,0.37125 0.5325,0.37125 1.16125,0 2.75375,-0.9425 3.48625,-1.7425 1.65,0 3.24125,-0.1175 4.8825,-0.1175 l 3.27125,0 c 0,0 -0.21,0.9575 -0.21,1.01125 -2.065,9.6825 -5.19,17.9 -7.505,23.09 -0.3225,0.69875 -3.18875,7.3 -3.925,7.94 -2.34,0 -4.0925,-1.265 -5.04,-3.33 -0.15625,-0.3275 -0.15625,-0.5275 -0.5275,-0.5275 -1.215,0 -4.135,1.69875 -4.135,2.5925 0,0.0925 0.0538,0.21 0.1175,0.3175 0.9425,2.485 3.325,3.91125 5.9275,3.91125 2.69,0 5.815,-1.95375 7.505,-3.91125 1.7675,-2.0075 5.25375,-10.70375 6.635,-13.8725 l 10.215,0 c -0.0538,0.0537 -0.1075,0.0975 -0.1075,0.15125 0,0.21 0.3175,0.38125 0.5325,0.38125 1.1675,0 4.19,-1.49875 4.19,-3.135 0,-0.37625 -0.3625,-0.3225 -1.01125,-0.3225 l -12.715,0 c 1.3825,-4.76 3.17875,-9.41375 4.14625,-14.29625 l 6.98625,0 c 1.31875,0 5.035,-0.26375 5.98125,0.9175 0.0987,0.3075 -0.0525,0.84 0.0987,1.10375 0.11625,0.1075 0.26375,0.14625 0.43375,0.14625 1.265,0 4.13625,-1.59125 4.13625,-3.0175 z"
       id="path3299"
       style="fill:#000000;fill-opacity:1;fill-rule:nonzero;stroke:none" />
    <path
       d="m 322.4225,528.6897 0,-0.0338 0.004,-0.01 0,-0.0287 0.005,-0.01 0.005,-0.015 0,-0.0188 0.005,-0.01 0,-0.015 0.01,-0.0187 0.005,-0.015 0.005,-0.0337 0.01,-0.035 0,-0.015 0.004,-0.009 0.005,-0.02 0,-0.015 0.005,-0.0137 0.005,-0.01 0,-0.01 0.005,-0.01 0,-0.0237 0.01,0 0,-0.02 c 0,-0.025 0,-0.27875 -0.3175,-0.27875 -0.26875,0 -0.2975,0.0888 -0.4,0.5525 l -1.5525,6.37625 c -4.23875,0.1375 -8.17,3.81375 -8.17,7.56875 0,2.6225 1.86625,4.805 5.1225,4.995 l 0.13625,-0.605 c -1.59625,-0.0788 -3.525,-1.045 -3.525,-3.80875 0,-3.32 2.305,-7.1825 6.27875,-7.535 l -2.75375,11.34375 -0.13625,0.605 c -0.21,0.86 -0.39,1.74375 -0.61,2.5975 -0.3175,1.30375 -0.58125,2.34875 -0.58125,2.4325 0,0.2725 0.18,0.3075 0.3125,0.3075 0.13625,0 0.195,-0.035 0.26875,-0.1125 0.0488,-0.0537 0.22,-0.7175 0.2975,-1.10875 l 1.01125,-4.11625 0.13125,-0.605 2.75375,-11.34375 c 2.02625,0.10375 3.545,1.3775 3.545,3.81375 0,3.2525 -2.29,7.2025 -6.29875,7.53 l -0.13125,0.605 c 4.30125,-0.14125 8.16875,-3.8575 8.16875,-7.55875 0,-2.1775 -1.41625,-4.73125 -5.1275,-5.005 l 1.495,-6.26 z"
       id="path3301"
       style="fill:#000000;fill-opacity:1;fill-rule:nonzero;stroke:none" />
    <path
       d="m 335.46375,553.8072 0,-0.0437 -0.005,-0.005 0,-0.01 -0.005,-0.005 0,-0.0138 -0.01,-0.02 -0.009,-0.01 -0.005,-0.0187 -0.01,-0.01 -0.01,-0.02 -0.015,-0.0137 -0.009,-0.015 -0.015,-0.02 -0.02,-0.0188 -0.005,-0.015 -0.009,-0.01 -0.005,-0.01 -0.01,-0.01 -0.01,-0.0137 -0.0387,-0.04 -0.01,-0.0137 -0.0288,-0.03 -0.01,-0.0138 -0.035,-0.035 -0.009,-0.015 -0.015,-0.0188 -0.02,-0.015 -0.0188,-0.0187 -0.015,-0.02 -0.0387,-0.0388 -0.02,-0.015 -0.015,-0.025 -0.0238,-0.0188 c -3.33,-3.48125 -4.19,-8.69625 -4.19,-12.92 0,-4.805 1.02125,-9.61875 4.2975,-13.05625 0.34125,-0.3425 0.34125,-0.39625 0.34125,-0.47875 0,-0.19625 -0.0975,-0.27375 -0.25375,-0.27375 -0.26875,0 -2.67625,1.875 -4.2475,5.37625 -1.3625,3.04125 -1.685,6.1075 -1.685,8.4325 0,2.1525 0.2975,5.48375 1.7625,8.6125 1.59625,3.39375 3.90125,5.18625 4.17,5.18625 0.15625,0 0.25375,-0.0788 0.25375,-0.27875 z"
       id="path3303"
       style="fill:#000000;fill-opacity:1;fill-rule:nonzero;stroke:none" />
    <path
       d="m 353.90125,554.41845 -0.015,0.0287 -0.005,0.02 -0.004,0.0237 -0.005,0.03 0,0.0188 -0.005,0.015 -0.01,0.0487 0,0.015 -0.005,0.0137 0,0.02 -0.005,0.015 0,0.0188 -0.005,0.01 0,0.03 -0.01,0.009 0,0.04 -0.005,0.005 0,0.0437 c 0,0.425 0.3375,0.615 0.63,0.615 0.67875,0 0.82125,-0.58125 0.9525,-1.19125 0.26375,-1.01125 0.78625,-3.20875 0.97125,-3.94125 0.17125,0.28375 0.7625,1.1925 2.05125,1.1925 l -0.02,-0.5375 c -1.38125,0 -1.78625,-1.42625 -1.78625,-1.68 0,-0.0437 0.1075,-0.46375 0.16625,-0.69375 0.56125,-2.3775 0.66875,-2.82125 1.215,-3.66625 0.66875,-1.025 1.60625,-1.5875 2.35375,-1.5875 0.7575,0 1.48875,0.5625 1.48875,1.94375 0,0.89375 -0.4875,3.0325 -1.06875,4.00375 -0.85,1.3675 -1.7875,1.68 -2.36875,1.68 l 0.02,0.5375 c 2.3925,0 4.93125,-2.6225 4.93125,-5.45 0,-2.04125 -1.3225,-3.25125 -2.97375,-3.25125 -1.825,0 -4.08125,1.65 -4.73625,4.38375 l -1.7525,7.2375 z"
       id="path3305"
       style="fill:#000000;fill-opacity:1;fill-rule:nonzero;stroke:none" />
    <path
       d="m 373.07125,540.2872 0,-0.425 -0.005,-0.215 -0.01,-0.225 -0.0237,-0.46875 -0.03,-0.4875 -0.0437,-0.5075 -0.0588,-0.5275 -0.0675,-0.5375 -0.0888,-0.56125 -0.1075,-0.56125 -0.12125,-0.57125 -0.14625,-0.58125 -0.16125,-0.59125 -0.18625,-0.59125 -0.21,-0.595 -0.23375,-0.58625 -0.1275,-0.2925 -0.13625,-0.29375 c -1.5975,-3.39375 -3.8875,-5.19 -4.155,-5.19 -0.16125,0 -0.26875,0.1075 -0.26875,0.27375 0,0.0825 0,0.13625 0.4975,0.635 2.6175,2.72875 4.14625,7.12375 4.14625,12.9 0,4.71625 -0.99125,9.575 -4.3075,13.05625 -0.33625,0.3275 -0.33625,0.38625 -0.33625,0.46375 0,0.16625 0.1075,0.27875 0.26875,0.27875 0.2675,0 2.65625,-1.88 4.2425,-5.38125 1.3525,-3.0325 1.67,-6.09875 1.67,-8.4175 z"
       id="path3307"
       style="fill:#000000;fill-opacity:1;fill-rule:nonzero;stroke:none" />
    <path
       d="m 401.50375,538.15345 0.23,0 0.0387,-0.005 0.0387,0 0.0388,-0.01 0.0787,-0.01 0.0688,-0.01 0.0387,-0.009 0.0337,-0.015 0.0688,-0.02 0.0288,-0.0187 0.03,-0.015 0.0288,-0.025 0.03,-0.0137 0.0187,-0.03 0.03,-0.0188 0.0288,-0.0437 0.005,-0.02 0.01,-0.01 0.01,-0.015 0.01,-0.0187 0.0238,-0.0975 0.005,-0.025 0.005,-0.02 0,-0.0437 0.01,-0.0238 0,-0.03 c 0,-0.55125 -0.5175,-0.55125 -0.87875,-0.55125 l -15.99125,0 c -0.37625,0 -0.88,0 -0.88,0.55125 0,0.5475 0.50375,0.5475 0.90375,0.5475 l 15.9375,0 z"
       id="path3309"
       style="fill:#000000;fill-opacity:1;fill-rule:nonzero;stroke:none" />
    <path
       d="m 401.53375,543.5147 0.0675,0 0.0688,-0.005 0.1125,0 0.0775,-0.01 0.035,0 0.0387,-0.005 0.0388,-0.01 0.03,-0.004 0.0387,-0.015 0.0288,-0.01 0.035,-0.01 0.0337,-0.015 0.0288,-0.0138 0.035,-0.015 0.0238,-0.025 0.03,-0.0188 0.0187,-0.025 0.04,-0.0387 0.0188,-0.0288 0.005,-0.015 0.01,-0.015 0.01,-0.0187 0.01,-0.015 0.0188,-0.0787 0.005,-0.0238 0.005,-0.02 0.005,-0.0237 0,-0.0438 0.01,-0.03 0,-0.02 c 0,-0.55625 -0.5175,-0.55625 -0.90875,-0.55625 l -15.9375,0 c -0.4,0 -0.90375,0 -0.90375,0.55625 0,0.5525 0.50375,0.5525 0.88,0.5525 l 15.99125,0 z"
       id="path3311"
       style="fill:#000000;fill-opacity:1;fill-rule:nonzero;stroke:none" />
    <path
       d="m 422.97875,528.6897 0,-0.0288 0.005,0 0,-0.0287 0.005,-0.015 0,-0.01 0.009,-0.015 0.005,-0.0188 0,-0.01 0.005,-0.015 0.005,-0.0187 0,-0.015 0.01,-0.0337 0.005,-0.035 0.005,-0.015 0.005,-0.009 0,-0.02 0.01,-0.0287 0,-0.01 0.009,-0.01 0,-0.015 0.005,-0.01 0,-0.0187 0.005,-0.005 0,-0.005 c 0,-0.025 0,-0.27875 -0.3225,-0.27875 -0.26875,0 -0.2875,0.0888 -0.4,0.5525 l -1.5475,6.37625 c -4.24375,0.1375 -8.16875,3.81375 -8.16875,7.56875 0,2.6225 1.865,4.805 5.11625,4.995 l 0.1375,-0.605 c -1.5975,-0.0788 -3.52125,-1.045 -3.52125,-3.80875 0,-3.32 2.3,-7.1825 6.275,-7.535 l -2.75375,11.34375 -0.1375,0.605 c -0.205,0.86 -0.39,1.74375 -0.61,2.5975 -0.3125,1.30375 -0.58125,2.34875 -0.58125,2.4325 0,0.2725 0.18125,0.3075 0.3125,0.3075 0.1375,0 0.195,-0.035 0.26875,-0.1125 0.0537,-0.0537 0.22,-0.7175 0.2975,-1.10875 l 1.01125,-4.11625 0.13125,-0.605 2.75375,-11.34375 c 2.0275,0.10375 3.555,1.3775 3.555,3.81375 0,3.2525 -2.295,7.2025 -6.30875,7.53 l -0.13125,0.605 c 4.30125,-0.14125 8.16875,-3.8575 8.16875,-7.55875 0,-2.1775 -1.41625,-4.73125 -5.1225,-5.005 l 1.49,-6.26 z"
       id="path3313"
       style="fill:#000000;fill-opacity:1;fill-rule:nonzero;stroke:none" />
    <path
       d="m 436.025,553.8072 0,-0.0487 -0.01,-0.01 0,-0.005 -0.004,-0.0138 -0.04,-0.0788 -0.0288,-0.0287 -0.01,-0.02 -0.015,-0.0188 -0.0138,-0.015 -0.005,-0.01 -0.02,-0.02 -0.0188,-0.0288 -0.015,-0.01 -0.02,-0.0287 -0.015,-0.01 -0.0138,-0.02 -0.015,-0.0138 -0.01,-0.015 -0.015,-0.02 -0.0188,-0.015 -0.015,-0.0188 -0.015,-0.015 -0.0137,-0.0187 -0.025,-0.02 -0.0537,-0.0538 -0.0188,-0.025 -0.025,-0.0188 c -3.33,-3.48125 -4.18,-8.69625 -4.18,-12.92 0,-4.805 1.01125,-9.61875 4.2925,-13.05625 0.34125,-0.3425 0.34125,-0.39625 0.34125,-0.47875 0,-0.19625 -0.0975,-0.27375 -0.25875,-0.27375 -0.26875,0 -2.66625,1.875 -4.2425,5.37625 -1.3675,3.04125 -1.68,6.1075 -1.68,8.4325 0,2.1525 0.2875,5.48375 1.7525,8.6125 1.5975,3.39375 3.90125,5.18625 4.17,5.18625 0.16125,0 0.25875,-0.0788 0.25875,-0.27875 z"
       id="path3315"
       style="fill:#000000;fill-opacity:1;fill-rule:nonzero;stroke:none" />
    <path
       d="m 456.7575,528.98845 0.005,-0.02 0.005,-0.0237 0.01,-0.02 0.005,-0.025 0.01,-0.0188 0.005,-0.03 0.004,-0.0188 0.005,-0.03 0.01,-0.0487 0.005,-0.0288 0.01,-0.03 0,-0.0238 0.005,-0.0337 0,-0.0638 c 0,-0.24875 -0.1375,-0.24875 -0.66,-0.24875 l -11.26375,0 c -0.64,0 -0.67375,0.0287 -0.83,0.55625 l -1.465,4.97 c -0.0588,0.1375 -0.0888,0.3275 -0.0888,0.38625 0,0.0287 0,0.3075 0.3275,0.3075 0.24,0 0.2975,-0.2 0.34625,-0.27875 1.01125,-3.26625 2.3975,-5.0825 6.5625,-5.0825 l 4.34625,0 -14.9125,17.26125 c 0,0.0187 -0.1075,0.415 -0.1075,0.4925 0,0.24875 0.18125,0.24875 0.67,0.24875 l 11.61125,0 c 0.63375,0 0.65875,-0.0288 0.83,-0.55625 l 1.88875,-6.09375 c 0.02,-0.1125 0.1075,-0.3125 0.1075,-0.415 0,-0.14125 -0.1075,-0.3075 -0.35625,-0.3075 -0.22875,0 -0.26375,0.1075 -0.44875,0.68875 -1.1725,3.76 -2.45125,5.74625 -6.9875,5.74625 l -4.57,0 14.92125,-17.26 z"
       id="path3317"
       style="fill:#000000;fill-opacity:1;fill-rule:nonzero;stroke:none" />
    <path
       d="m 465.37125,540.2872 -0.005,-0.205 0,-0.22 -0.005,-0.215 -0.005,-0.225 -0.0188,-0.46875 -0.035,-0.4875 -0.0437,-0.5075 -0.0588,-0.5275 -0.0725,-0.5375 -0.0888,-0.56125 -0.1025,-0.56125 -0.12125,-0.57125 -0.1425,-0.58125 -0.16625,-0.59125 -0.19,-0.59125 -0.21,-0.595 -0.1125,-0.29375 -0.24375,-0.585 -0.14125,-0.29375 c -1.5975,-3.39375 -3.8875,-5.19 -4.15625,-5.19 -0.16,0 -0.2675,0.1075 -0.2675,0.27375 0,0.0825 0,0.13625 0.5025,0.635 2.6225,2.72875 4.14,7.12375 4.14,12.9 0,4.71625 -0.98125,9.575 -4.30125,13.05625 -0.34125,0.3275 -0.34125,0.38625 -0.34125,0.46375 0,0.16625 0.1075,0.27875 0.2675,0.27875 0.26875,0 2.66125,-1.88 4.24375,-5.38125 1.3525,-3.0325 1.675,-6.09875 1.675,-8.4175 z"
       id="path3319"
       style="fill:#000000;fill-opacity:1;fill-rule:nonzero;stroke:none" />
    <path
       d="m 490.2925,536.68845 -0.009,-0.38125 -0.04,-0.37625 -0.0537,-0.35625 -0.0775,-0.34125 -0.0975,-0.3375 -0.1175,-0.3175 -0.14125,-0.3075 -0.15625,-0.2875 -0.17125,-0.28375 -0.185,-0.26375 -0.20625,-0.24875 -0.21375,-0.24375 -0.23,-0.23 -0.23875,-0.21 -0.25875,-0.205 -0.26375,-0.19 -0.27375,-0.17625 -0.28375,-0.16625 -0.2875,-0.15625 -0.2975,-0.13625 -0.30875,-0.13125 -0.3125,-0.1175 -0.3075,-0.1075 -0.32125,-0.0925 -0.3225,-0.0838 -0.3225,-0.0725 -0.3225,-0.0588 -0.3175,-0.0488 -0.3275,-0.0387 -0.31625,-0.03 -0.3225,-0.015 -0.3075,-0.009 c -3.4775,0 -7.4275,1.9375 -7.4275,6 l 0,10.1275 c 0,0.5025 0,0.99625 0.5375,0.99625 0.5325,0 0.5325,-0.49375 0.5325,-0.99625 l 0,-9.99 c 0,-4.14125 4.35,-5.03 6.3575,-5.03 1.19125,0 2.875,0.245 4.28625,1.18625 2.06125,1.3525 2.06125,3.12125 2.06125,3.8625 l 0,9.97125 c 0,0.5025 0,0.99625 0.5275,0.99625 0.53625,0 0.53625,-0.49375 0.53625,-0.99625 l 0,-10.1075 z"
       id="path3321"
       style="fill:#000000;fill-opacity:1;fill-rule:nonzero;stroke:none" />
    <path
       d="m -179.17,234.6272 0.01,-0.0387 0.015,-0.0437 0.009,-0.0438 0.02,-0.0437 0.01,-0.0387 0.01,-0.0538 0.0137,-0.045 0.01,-0.0538 0.01,-0.0387 0.0288,-0.16125 0.015,-0.0537 0,-0.14625 0.01,-0.0337 c 0,-0.47875 -0.26875,-0.47875 -1.31875,-0.47875 l -22.35375,0 c -1.26375,0 -1.3325,0.0537 -1.65,1.065 l -2.9,9.535 c -0.1175,0.26375 -0.17125,0.625 -0.17125,0.7425 0,0.0537 0,0.58625 0.65,0.58625 0.46875,0 0.585,-0.38625 0.67875,-0.5325 2.01125,-6.26 4.775,-9.75125 13.0225,-9.75125 l 8.6425,0 -29.605,33.10625 c 0,0.0387 -0.215,0.795 -0.215,0.9425 0,0.4775 0.36125,0.4775 1.33375,0.4775 l 23.03125,0 c 1.265,0 1.31875,-0.0487 1.65125,-1.05875 l 3.75,-11.695 c 0.0538,-0.215 0.215,-0.595 0.215,-0.795 0,-0.26875 -0.215,-0.58625 -0.69375,-0.58625 -0.46875,0 -0.5325,0.2 -0.90375,1.31875 -2.31875,7.20625 -4.8575,11.02 -13.8625,11.02 l -9.0675,0 29.605,-33.10125 z"
       id="path3323"
       style="fill:#000000;fill-opacity:1;fill-rule:nonzero;stroke:none" />
    <path
       d="m -6.63625,297.0247 0.26375,-0.2875 0.25875,-0.26375 0.25375,-0.26375 0.245,-0.25875 0.23375,-0.24375 0.235,-0.235 0.22,-0.23375 0.21375,-0.22 0.21,-0.215 0.215,-0.2 0.2,-0.205 0.20625,-0.2 0.19,-0.18125 0.2,-0.19 0.37125,-0.35125 0.36625,-0.3425 0.34625,-0.3175 0.35125,-0.3075 0.3425,-0.3075 0.68875,-0.595 0.35125,-0.30875 0.35125,-0.2975 c 0,-0.0538 3.27625,-2.86125 5.18625,-4.775 5.02875,-4.93125 6.20125,-7.47125 6.20125,-7.66125 0,-0.5325 -0.49375,-0.5325 -0.58625,-0.5325 -0.37125,0 -0.5325,0.0925 -0.79625,0.57125 -1.58625,2.54375 -2.69,3.39375 -3.98,3.39375 -1.27375,0 -1.89875,-0.79625 -2.7,-1.69 -0.99625,-1.235 -1.88875,-2.275 -3.6525,-2.275 -3.96375,0 -6.40125,4.9125 -6.40125,6.025 0,0.26875 0.1475,0.57625 0.64,0.57625 0.47875,0 0.57125,-0.2675 0.67875,-0.57625 1.01125,-2.44625 4.0825,-2.495 4.4975,-2.495 1.1125,0 2.12375,0.38125 3.335,0.79625 2.12875,0.79625 2.715,0.79625 4.09625,0.79625 -1.91375,2.275 -6.3675,6.10375 -7.35875,6.94375 l -4.77,4.4425 c -3.60375,3.55 -5.46375,6.5675 -5.46375,6.93875 0,0.5325 0.5275,0.5325 0.625,0.5325 0.43375,0 0.5325,-0.1075 0.84875,-0.67875 1.23625,-1.86 2.80875,-3.29625 4.5075,-3.29625 1.225,0 1.7525,0.48875 3.07125,2.0075 0.9175,1.1175 1.86,1.9675 3.38375,1.9675 5.24875,0 8.32,-6.72875 8.32,-8.155 0,-0.26375 -0.21,-0.5275 -0.625,-0.5275 -0.4875,0 -0.585,0.30875 -0.75625,0.68875 -1.21125,3.4425 -4.59,4.43375 -6.3575,4.43375 -1.04,0 -2.0075,-0.3075 -3.125,-0.67875 -1.7825,-0.68375 -2.58375,-0.89375 -3.69625,-0.89375 -0.1075,0 -0.9475,0 -1.43625,0.14625 z"
       id="path3325"
       style="fill:#000000;fill-opacity:1;fill-rule:nonzero;stroke:none" />
    <path
       d="m -27.04625,469.9497 0,-0.0537 -0.01375,-0.0238 0,-0.0387 -0.01,-0.025 0,-0.02 -0.01,-0.0188 -0.01,-0.025 -0.02,-0.0388 -0.01375,-0.025 -0.02,-0.0387 -0.01875,-0.0238 -0.025,-0.02 -0.01,-0.0238 -0.01875,-0.02 -0.025,-0.02 -0.02,-0.01 -0.02875,-0.0238 -0.025,-0.01 -0.02875,-0.0188 -0.025,-0.01 -0.02875,-0.015 -0.025,-0.01 -0.0087,0 -0.02,-0.01 -0.03375,0 -0.02,-0.009 -0.12625,0 c -0.26875,0 -0.3325,0.0437 -0.9575,0.795 l -2.53875,3.0175 c -1.3825,-2.485 -4.13625,-3.8125 -7.58375,-3.8125 -6.72875,0 -13.07125,6.08875 -13.07125,12.5 0,4.28125 2.8175,6.7275 5.50375,7.50375 l 5.65875,1.5 c 1.9625,0.46875 4.8875,1.26375 4.8875,5.61 0,4.775 -4.36,9.74125 -9.53625,9.74125 -3.38875,0 -9.2675,-1.1725 -9.2675,-7.73 0,-1.27375 0.26375,-2.53875 0.3175,-2.86125 0.04375,-0.21 0.0975,-0.26375 0.0975,-0.37125 0,-0.53125 -0.36125,-0.585 -0.63,-0.585 -0.26375,0 -0.37125,0.0537 -0.5325,0.21375 -0.21875,0.21 -3.17375,12.28625 -3.17375,12.4375 0,0.3175 0.26375,0.5325 0.58125,0.5325 0.26875,0 0.3225,-0.045 0.9475,-0.80125 l 2.6025,-2.99375 c 2.275,3.07125 5.86875,3.795 8.94,3.795 7.2075,0 13.4575,-7.03625 13.4575,-13.59875 0,-3.6575 -1.79625,-5.46375 -2.5925,-6.19625 -1.21125,-1.23125 -2.0075,-1.42625 -6.72875,-2.65625 -1.1575,-0.3175 -3.07125,-0.85 -3.55,-0.9475 -1.435,-0.47875 -3.2225,-2.0075 -3.2225,-4.815 0,-4.30625 4.23375,-8.80375 9.2625,-8.80375 4.41,0 7.6325,2.27625 7.6325,8.2175 0,1.69 -0.225,2.6475 -0.225,2.955 0,0.0537 0,0.5325 0.65,0.5325 0.53125,0 0.58,-0.1575 0.785,-1.06 l 2.87125,-11.5875 z"
       id="path3327"
       style="fill:#000000;fill-opacity:1;fill-rule:nonzero;stroke:none" />
    <path
       d="m -26.685,520.61845 -0.02375,0.0537 -0.02,0.0888 -0.01,0.0538 0,0.0387 -0.0087,0.0338 -0.015,0.0438 -0.01,0.04 0,0.0337 -0.01,0.03 0,0.0337 -0.01,0.0288 0,0.035 -0.0087,0.0187 0,0.0538 -0.01,0.025 0,0.0725 -0.015,0.01 0,0.0838 c 0,0.82 0.66875,1.18125 1.245,1.18125 1.3525,0 1.62625,-1.11875 1.895,-2.285 0.5175,-1.93375 1.5625,-6.1575 1.93375,-7.55875 0.32625,0.54125 1.50875,2.285 4.0575,2.285 l -0.03,-1.03 c -2.73375,0 -3.55,-2.73 -3.55,-3.2225 0,-0.0837 0.21,-0.88875 0.3275,-1.32875 1.11875,-4.56 1.32875,-5.41 2.4125,-7.03625 1.3325,-1.9675 3.19375,-3.04125 4.6675,-3.04125 1.50875,0 2.955,1.07375 2.955,3.735 0,1.70875 -0.9675,5.81 -2.105,7.67125 -1.69875,2.62625 -3.56,3.2225 -4.7075,3.2225 l 0.03,1.03 c 4.755,0 9.79,-5.02875 9.79,-10.44875 0,-3.91125 -2.6225,-6.24125 -5.89875,-6.24125 -3.6225,0 -8.1,3.17 -9.395,8.40875 l -3.48625,13.88125 z"
       id="path3329"
       style="fill:#000000;fill-opacity:1;fill-rule:nonzero;stroke:none" />
    <path
       d="m 354.23375,528.9097 0,-0.0288 -0.005,-0.01 0,-0.02 -0.005,-0.009 0,-0.02 -0.01,-0.015 -0.01,-0.0287 -0.0138,-0.015 -0.005,-0.015 -0.02,-0.0238 -0.005,-0.01 -0.01,-0.01 -0.0137,-0.01 -0.01,-0.009 -0.015,-0.01 -0.01,-0.01 -0.0437,-0.015 -0.01,-0.005 -0.005,0 -0.0138,-0.005 -0.015,0 -0.01,-0.009 -0.0638,0 c -0.13625,0 -0.165,0.0237 -0.4825,0.415 l -1.28,1.57625 c -0.6975,-1.29875 -2.085,-1.99125 -3.8175,-1.99125 -3.39375,0 -6.5925,3.17375 -6.5925,6.51375 0,2.23625 1.42125,3.515 2.77875,3.92 l 2.84625,0.78125 c 0.99125,0.24 2.46625,0.655 2.46625,2.925 0,2.49 -2.1975,5.07375 -4.805,5.07375 -1.70875,0 -4.6725,-0.60625 -4.6725,-4.02375 0,-0.67375 0.13625,-1.3325 0.16125,-1.49875 0.0187,-0.1075 0.0487,-0.1325 0.0487,-0.18625 0,-0.2825 -0.18125,-0.3075 -0.3175,-0.3075 -0.1325,0 -0.18625,0.025 -0.26875,0.1125 -0.1125,0.1075 -1.60125,6.40625 -1.60125,6.48 0,0.17 0.13625,0.2825 0.2975,0.2825 0.13125,0 0.16125,-0.0288 0.47375,-0.42 l 1.31375,-1.5625 c 1.1475,1.5975 2.95875,1.9825 4.50625,1.9825 3.6275,0 6.7825,-3.67625 6.7825,-7.09 0,-1.90875 -0.90875,-2.85125 -1.30875,-3.2325 -0.61,-0.64875 -1.01125,-0.74625 -3.39375,-1.38625 -0.58125,-0.16625 -1.5475,-0.44375 -1.7875,-0.4975 -0.7225,-0.245 -1.62,-1.045 -1.62,-2.51 0,-2.24625 2.12875,-4.59 4.6625,-4.59 2.22125,0 3.8475,1.19125 3.8475,4.2875 0,0.87875 -0.1125,1.38125 -0.1125,1.5375 0,0.0338 0,0.27875 0.3275,0.27875 0.26875,0 0.2925,-0.0788 0.395,-0.5525 l 1.44625,-6.04 z"
       id="path3331"
       style="fill:#000000;fill-opacity:1;fill-rule:nonzero;stroke:none" />
    <path
       d="m 711.1525,612.1672 -0.39125,0.0975 -0.39,0.1175 -0.38125,0.13625 -0.37125,0.15125 -0.36125,0.17125 -0.35625,0.18 -0.35125,0.20125 -0.3375,0.21375 -0.33125,0.225 -0.3225,0.24875 -0.3175,0.25375 -0.2975,0.26375 -0.29875,0.27375 -0.2725,0.28875 -0.27375,0.3025 -0.25375,0.3025 -0.24875,0.3175 -0.23,0.3225 -0.225,0.33125 -0.2,0.3375 -0.19,0.34125 -0.18125,0.3475 -0.16125,0.35625 -0.15125,0.35625 -0.12625,0.36125 -0.1125,0.36125 -0.1025,0.37125 -0.0838,0.36125 -0.0575,0.37125 -0.05,0.37125 -0.0238,0.36625 -0.015,0.37125 c 0,3.095 2.14875,5.41 5.3125,5.41 l 0,-0.70875 c -1.855,0 -3.2225,-1.3525 -3.2225,-3.80375 0,-2.03125 1.24,-8.1 5.77125,-9.2625 0.845,1.475 1.84125,3.2225 1.84125,5.5475 0,2.13375 -1.275,7.51875 -4.39,7.51875 l 0,0.70875 c 3.93625,0 6.71375,-5.05875 6.71375,-9.5125 0,-2.94875 -1.3375,-4.555 -2.49,-6.005 -1.20125,-1.46 -3.17875,-3.8775 -3.17875,-5.29875 0,-0.7175 0.66375,-1.48875 1.84125,-1.48875 1.015,0 1.675,0.415 2.3825,0.87375 0.67375,0.38625 1.3475,0.81125 1.855,0.81125 0.835,0 1.34375,-0.78125 1.34375,-1.295 0,-0.7125 -0.5425,-0.805 -1.75375,-1.06375 -1.7425,-0.35625 -2.21125,-0.35625 -2.75375,-0.35625 -2.62125,0 -3.8275,1.38625 -3.8275,3.32 0,1.7525 0.97625,3.555 2.02125,5.5325 z"
       id="path3333"
       style="fill:#000000;fill-opacity:1;fill-rule:nonzero;stroke:none" />
    <path
       d="m 750.9375,615.7022 0.2875,0 0.05,-0.005 0.0525,0 0.05,-0.005 0.0437,-0.005 0.0488,-0.01 0.0487,-0.005 0.0438,-0.004 0.0875,-0.03 0.0438,-0.01 0.04,-0.0138 0.0388,-0.02 0.0437,-0.02 0.03,-0.0238 0.0337,-0.02 0.0338,-0.0337 0.03,-0.025 0.0237,-0.0338 0.015,-0.02 0.005,-0.0187 0.015,-0.015 0.0137,-0.02 0.005,-0.0187 0.01,-0.025 0.01,-0.0188 0.01,-0.025 0.005,-0.02 0,-0.0238 0.009,-0.03 0.005,-0.0237 0,-0.025 0.005,-0.0288 0,-0.0588 c 0,-0.645 -0.64,-0.645 -1.10375,-0.645 l -20.12625,0 c -0.47875,0 -1.11375,0 -1.11375,0.645 0,0.635 0.635,0.635 1.1425,0.635 l 20.06375,0 z"
       id="path3335"
       style="fill:#000000;fill-opacity:1;fill-rule:nonzero;stroke:none" />
    <path
       d="m 750.97125,621.97595 0.0887,0 0.0925,-0.004 0.14125,0 0.0487,-0.01 0.0388,-0.005 0.05,0 0.0438,-0.005 0.0487,-0.015 0.0488,-0.005 0.0388,-0.0137 0.0387,-0.01 0.0488,-0.015 0.04,-0.015 0.0338,-0.0188 0.0437,-0.02 0.03,-0.025 0.0337,-0.0238 0.0338,-0.0287 0.0437,-0.045 0.01,-0.0188 0.015,-0.015 0.005,-0.02 0.0288,-0.0388 0.005,-0.0187 0.01,-0.015 0.01,-0.03 0.01,-0.0188 0.005,-0.025 0,-0.0237 0.009,-0.03 0.005,-0.0237 0,-0.025 0.005,-0.0288 0,-0.0588 c 0,-0.645 -0.64,-0.645 -1.1375,-0.645 l -20.06375,0 c -0.5075,0 -1.1425,0 -1.1425,0.645 0,0.64875 0.635,0.64875 1.11375,0.64875 l 20.12625,0 z"
       id="path3337"
       style="fill:#000000;fill-opacity:1;fill-rule:nonzero;stroke:none" />
    <path
       d="m 780.635,604.2172 0,-0.0338 -0.01,-0.015 0,-0.0238 -0.005,-0.015 0,-0.01 -0.01,-0.0137 0,-0.015 -0.005,-0.02 -0.005,-0.01 -0.0138,-0.0188 -0.005,-0.015 -0.015,-0.02 -0.01,-0.0137 -0.0437,-0.0438 -0.015,-0.005 -0.004,-0.01 -0.01,-0.005 -0.015,-0.005 -0.005,-0.01 -0.015,-0.005 -0.009,-0.005 -0.015,-0.009 -0.01,0 -0.01,-0.005 -0.015,-0.005 -0.0187,0 -0.015,-0.01 -0.015,-0.005 -0.0337,0 -0.01,-0.005 -0.0438,0 -0.01,-0.005 -0.0437,0 c -0.5025,0 -3.70125,0.29875 -4.2675,0.35625 -0.27875,0.03 -0.47375,0.19125 -0.47375,0.61625 0,0.385 0.3025,0.385 0.81125,0.385 1.61125,0 1.67875,0.22 1.67875,0.5475 l -0.1025,0.64375 -2.02125,7.65625 c -0.6,-1.19125 -1.5775,-2.06 -3.08125,-2.06 l 0.025,0.7025 c 2.1875,0 2.65625,2.6475 2.65625,2.8325 0,0.21 -0.0587,0.395 -0.0925,0.55625 l -1.685,6.33375 c -0.17125,0.57625 -0.17125,0.63375 -0.67375,1.19125 -1.48,1.7775 -2.86125,2.29 -3.79375,2.29 -1.68,0 -2.14875,-1.7725 -2.14875,-3.0325 0,-1.61625 1.06875,-5.58125 1.84125,-7.07 1.045,-1.905 2.5625,-3.10125 3.89625,-3.10125 l -0.025,-0.7025 c -3.935,0 -8.095,4.73625 -8.095,9.4525 0,3.0375 1.84,5.16625 4.4625,5.16625 0.66375,0 2.34875,-0.13625 4.365,-2.42625 0.27875,1.3625 1.44625,2.42625 3.0575,2.42625 1.18125,0 1.9475,-0.7425 2.49,-1.7775 0.56625,-1.16125 1.01,-3.135 1.01,-3.1925 0,-0.3275 -0.3125,-0.3275 -0.4,-0.3275 -0.33625,0 -0.37125,0.13125 -0.47875,0.58625 -0.56625,2.09875 -1.18125,3.99875 -2.54875,3.99875 -0.90375,0 -1.01,-0.84 -1.01,-1.485 0,-0.77125 0.0575,-1.005 0.2,-1.5475 l 4.83875,-18.6625 z"
       id="path3339"
       style="fill:#000000;fill-opacity:1;fill-rule:nonzero;stroke:none" />
    <path
       d="m 802.35875,616.5272 -0.01,-0.0337 0,-0.03 -0.005,-0.0337 0,-0.0338 -0.005,-0.03 -0.015,-0.0237 -0.009,-0.035 -0.01,-0.0237 -0.015,-0.03 -0.0287,-0.0488 -0.02,-0.0288 -0.0788,-0.0975 -0.0488,-0.04 -0.0487,-0.0338 -0.0538,-0.0387 -0.0588,-0.035 -0.0525,-0.0338 -0.0688,-0.0287 -0.0637,-0.03 -0.0638,-0.0237 -0.0675,-0.025 -0.0738,-0.0188 -0.0688,-0.02 -0.0725,-0.02 -0.0688,-0.0137 -0.0738,-0.015 -0.0775,-0.01 -0.0637,-0.015 -0.13625,-0.009 -0.0688,-0.01 -0.0688,-0.005 -0.0575,0 -0.0588,-0.005 -10.99125,0 c -2.25125,0 -3.58375,1.055 -3.92125,1.67 -0.0488,0.0925 -0.1225,0.2 -0.1225,0.3125 0,0.16125 0.1475,0.18 0.28875,0.18 0.5125,0 1.20125,-0.4 1.59625,-0.7275 0.4,-0.0587 1.25,-0.0587 1.8025,-0.0587 l 2.265,0 c -0.67875,3.14 -1.17625,4.4875 -1.86,6.43125 -0.5575,1.645 -2.74875,6.3675 -3.4275,6.9725 -1.85125,0 -2.305,-0.90375 -2.65625,-1.5325 -0.0738,-0.045 -0.1475,-0.0688 -0.24,-0.0688 -0.67875,-0.02 -1.91875,0.81 -1.91875,1.21625 0,0.14625 0.79125,1.79125 3.0025,1.79125 1.52875,0 3.2225,-1.06375 3.97,-2.14875 0.89875,-1.27875 2.13875,-3.97375 2.75375,-5.415 l 5.04375,0 0,0.0638 c 0.0538,0.1125 0.0987,0.18125 0.245,0.18125 0.67375,0 1.99625,-0.71875 1.99625,-1.45125 0,-0.0875 -0.0725,-0.18 -0.16125,-0.18 l -6.5625,0 c 0.80125,-1.895 1.3675,-3.8575 1.7875,-5.86 l 4.815,0 c 0.8975,0 1.71875,0.1125 1.71875,0.51375 0,0.0725 -0.02,0.11125 -0.02,0.16125 0,0.11125 0.0588,0.175 0.3025,0.175 0.27875,0 1.905,-0.55625 1.905,-1.3475 z"
       id="path3341"
       style="fill:#000000;fill-opacity:1;fill-rule:nonzero;stroke:none" />
    <path
       d="m 801.70875,636.88845 -0.005,0.02 -0.01,0.0237 -0.004,0.02 -0.005,0.0238 0,0.02 -0.01,0.02 -0.005,0.0188 0,0.015 -0.01,0.02 0,0.0137 -0.005,0.02 0,0.01 -0.005,0.0138 0,0.025 -0.01,0.015 0,0.0388 -0.004,0.005 0,0.0738 c 0,0.36125 0.3025,0.55625 0.62,0.55625 0.66875,0 0.79125,-0.5325 0.9175,-0.9275 l 0.88375,-3.40375 c 0.5175,0.66375 1.22625,1.025 2.13875,1.025 l 0,-0.55625 c -1.49375,0 -1.885,-1.275 -1.885,-1.44 0,-0.04 0.48875,-1.86125 0.48875,-1.9 0.6975,-2.42625 2.42125,-2.86625 3.13,-2.86625 0.7125,0 1.61125,0.38625 1.61125,1.71375 0,0.68875 -0.36125,2.1875 -0.89875,3.0275 -0.68375,1.05 -1.69375,1.465 -2.44625,1.465 l 0,0.55625 c 2.3925,0 4.84875,-2.13375 4.84875,-4.4725 0,-1.70875 -1.3375,-2.84125 -3.08625,-2.84125 -1.9525,0 -4.12625,1.48375 -4.6725,3.6325 l -1.5775,6.035 z"
       id="path3343"
       style="fill:#000000;fill-opacity:1;fill-rule:nonzero;stroke:none" />
    <path
       d="m 826.69875,634.0122 0,-0.0588 -0.009,-0.0137 0,-0.005 -0.005,-0.015 -0.01,-0.015 -0.005,-0.009 -0.005,-0.015 -0.015,-0.02 -0.005,-0.0137 -0.0287,-0.04 -0.02,-0.0187 -0.0138,-0.02 -0.02,-0.025 -0.015,-0.009 -0.005,-0.015 -0.0138,-0.015 -0.015,-0.01 -0.01,-0.0137 -0.015,-0.02 -0.0137,-0.015 -0.015,-0.009 -0.01,-0.02 -0.0238,-0.015 -0.01,-0.0188 -0.025,-0.02 -0.0188,-0.02 -0.01,-0.0187 -0.025,-0.02 -0.0588,-0.0587 -0.0287,-0.0238 -0.1175,-0.1175 c -4.19875,-4.0675 -5.26875,-10.16625 -5.26875,-15.1075 0,-5.615 1.275,-11.24 5.40125,-15.26375 0.43375,-0.395 0.43375,-0.45875 0.43375,-0.55625 0,-0.23 -0.12125,-0.3175 -0.32625,-0.3175 -0.3375,0 -3.365,2.1875 -5.3425,6.28375 -1.71875,3.555 -2.11375,7.13875 -2.11375,9.85375 0,2.525 0.36125,6.41625 2.21125,10.07375 2.0075,3.96875 4.9075,6.06375 5.245,6.06375 0.205,0 0.32625,-0.0925 0.32625,-0.3225 z"
       id="path3345"
       style="fill:#000000;fill-opacity:1;fill-rule:nonzero;stroke:none" />
    <path
       d="m 843.29125,604.6422 0,-0.0237 0.005,-0.01 0,-0.02 0.005,-0.0187 0,-0.01 0.009,-0.015 0,-0.02 0.005,-0.0188 0,-0.01 0.005,-0.02 0.01,-0.0188 0.015,-0.0587 0.005,-0.0388 0.005,-0.02 0.009,-0.015 0.005,-0.0187 0,-0.02 0.005,-0.015 0,-0.009 0.01,-0.015 0,-0.015 0.005,-0.005 0,-0.0238 0.01,-0.005 0,-0.015 c 0,-0.0237 0,-0.3225 -0.405,-0.3225 -0.3375,0 -0.36625,0.1025 -0.50875,0.645 l -1.9475,7.45125 c -5.3425,0.16625 -10.28375,4.4575 -10.28375,8.8525 0,3.06625 2.35375,5.62 6.45,5.84 l 0.17125,-0.70875 c -2.01625,-0.0875 -4.43875,-1.22 -4.43875,-4.4475 0,-3.8825 2.89625,-8.39875 7.905,-8.81375 l -3.46625,13.26125 -0.17125,0.70875 c -0.25875,1.005 -0.4975,2.04 -0.76625,3.03625 -0.405,1.52375 -0.7425,2.75 -0.7425,2.8475 0,0.3175 0.235,0.35625 0.405,0.35625 0.16625,0 0.235,-0.0387 0.3375,-0.1325 0.0588,-0.0625 0.26875,-0.83875 0.36625,-1.29375 l 1.27375,-4.81375 0.16625,-0.70875 3.4675,-13.26125 c 2.54875,0.1225 4.4725,1.61125 4.4725,4.4575 0,3.80375 -2.88625,8.42375 -7.94,8.80375 l -0.16625,0.70875 c 5.41625,-0.16125 10.28375,-4.5125 10.28375,-8.83875 0,-2.54875 -1.7825,-5.52625 -6.445,-5.85375 l 1.875,-7.315 z"
       id="path3347"
       style="fill:#000000;fill-opacity:1;fill-rule:nonzero;stroke:none" />
    <path
       d="m 859.71625,634.0122 0,-0.0338 -0.004,-0.005 0,-0.02 -0.005,-0.0137 0,-0.005 -0.01,-0.015 -0.005,-0.015 -0.01,-0.009 -0.005,-0.015 -0.005,-0.02 -0.0137,-0.0137 -0.03,-0.04 -0.01,-0.0187 -0.0237,-0.02 -0.02,-0.025 -0.005,-0.009 -0.0538,-0.0537 -0.0137,-0.02 -0.025,-0.0237 -0.015,-0.02 -0.0187,-0.015 -0.015,-0.0188 -0.02,-0.02 -0.0138,-0.02 -0.0588,-0.0588 -0.025,-0.0187 -0.0187,-0.02 -0.02,-0.0238 -0.025,-0.02 -0.0237,-0.025 -0.025,-0.0188 -0.0538,-0.0537 c -4.18875,-4.0675 -5.2675,-10.16625 -5.2675,-15.1075 0,-5.615 1.27375,-11.24 5.41,-15.26375 0.42875,-0.395 0.42875,-0.45875 0.42875,-0.55625 0,-0.23 -0.12625,-0.3175 -0.32625,-0.3175 -0.3375,0 -3.36,2.1875 -5.3425,6.28375 -1.72375,3.555 -2.11875,7.13875 -2.11875,9.85375 0,2.525 0.37125,6.41625 2.21125,10.07375 2.0175,3.96875 4.9125,6.06375 5.25,6.06375 0.2,0 0.32625,-0.0925 0.32625,-0.3225 z"
       id="path3349"
       style="fill:#000000;fill-opacity:1;fill-rule:nonzero;stroke:none" />
    <path
       d="m 866.09375,623.58345 0.16625,-0.17625 0.47875,-0.47875 0.15125,-0.14625 0.425,-0.425 0.13125,-0.12625 0.13625,-0.1225 0.1275,-0.1275 0.1275,-0.12125 0.12125,-0.1075 0.1275,-0.1175 0.23875,-0.215 0.23,-0.205 0.22,-0.195 0.22375,-0.19125 0.215,-0.185 0.44,-0.36625 0.21875,-0.185 0.225,-0.18125 c 0,-0.0337 2.075,-1.7425 3.29125,-2.91 3.18875,-3.0075 3.92625,-4.55625 3.92625,-4.6725 0,-0.3225 -0.30375,-0.3225 -0.36625,-0.3225 -0.235,0 -0.3375,0.0588 -0.50375,0.34625 -1.005,1.5525 -1.70875,2.07 -2.52375,2.07 -0.81125,0 -1.20625,-0.4875 -1.71375,-1.03 -0.63,-0.75125 -1.20125,-1.38625 -2.32,-1.38625 -2.51875,0 -4.0575,2.9925 -4.0575,3.67125 0,0.16125 0.0925,0.3525 0.405,0.3525 0.3025,0 0.36125,-0.16125 0.43,-0.3525 0.64,-1.48875 2.5875,-1.5225 2.85125,-1.5225 0.70875,0 1.3475,0.23375 2.12,0.4875 1.3475,0.48375 1.71875,0.48375 2.5975,0.48375 -1.21625,1.38625 -4.04375,3.72125 -4.67375,4.23375 l -3.0225,2.71 c -2.29,2.1625 -3.46625,4.00375 -3.46625,4.2275 0,0.3275 0.3375,0.3275 0.395,0.3275 0.27875,0 0.3375,-0.0687 0.5425,-0.415 0.78125,-1.1375 1.7775,-2.01125 2.85125,-2.01125 0.78125,0 1.11875,0.2975 1.95875,1.225 0.57125,0.68375 1.17625,1.20125 2.14375,1.20125 3.33,0 5.2775,-4.10125 5.2775,-4.97 0,-0.16125 -0.13125,-0.3275 -0.395,-0.3275 -0.3125,0 -0.37125,0.19 -0.47875,0.425 -0.77125,2.09875 -2.915,2.7 -4.03375,2.7 -0.66375,0 -1.27375,-0.18625 -1.9825,-0.415 -1.1425,-0.415 -1.645,-0.5425 -2.3475,-0.5425 -0.0688,0 -0.60125,0 -0.90875,0.0888 z"
       id="path3351"
       style="fill:#000000;fill-opacity:1;fill-rule:nonzero;stroke:none" />
    <path
       d="m 888.40875,618.1972 -0.005,-0.23875 0,-0.25 -0.01,-0.25375 -0.005,-0.26875 -0.0287,-0.54125 -0.04,-0.57125 -0.0538,-0.59625 -0.0725,-0.615 -0.0937,-0.63 -0.10625,-0.65375 -0.1375,-0.66 -0.15625,-0.66875 -0.175,-0.67875 -0.21,-0.68875 -0.235,-0.6925 -0.26375,-0.69375 -0.14125,-0.34125 -0.15625,-0.3475 -0.3225,-0.68375 c -2.01625,-3.96375 -4.9025,-6.06375 -5.23875,-6.06375 -0.205,0 -0.3375,0.12125 -0.3375,0.3175 0,0.0975 0,0.16125 0.635,0.74125 3.29625,3.18875 5.21,8.33125 5.21,15.07875 0,5.5175 -1.24,11.20125 -5.415,15.26875 -0.43,0.38125 -0.43,0.45375 -0.43,0.54625 0,0.19125 0.1325,0.3225 0.3375,0.3225 0.33625,0 3.34875,-2.1975 5.34125,-6.29375 1.70375,-3.545 2.11,-7.12875 2.11,-9.84375 z"
       id="path3353"
       style="fill:#000000;fill-opacity:1;fill-rule:nonzero;stroke:none" />
    <path
       d="m 901.43125,618.1972 0,-0.48875 -0.005,-0.25375 -0.015,-0.26875 -0.025,-0.54125 -0.0438,-0.57125 -0.0537,-0.59625 -0.0638,-0.615 -0.0975,-0.63 -0.1075,-0.65375 -0.13625,-0.66 -0.15125,-0.66875 -0.185,-0.67875 -0.20125,-0.68875 -0.23375,-0.6925 -0.26375,-0.69375 -0.15125,-0.34125 -0.14625,-0.3475 -0.16125,-0.34125 -0.17125,-0.3425 c -2.00625,-3.96375 -4.8925,-6.06375 -5.23375,-6.06375 -0.20125,0 -0.3375,0.12125 -0.3375,0.3175 0,0.0975 0,0.16125 0.63,0.74125 3.29625,3.18875 5.22,8.33125 5.22,15.07875 0,5.5175 -1.25,11.20125 -5.415,15.26875 -0.435,0.38125 -0.435,0.45375 -0.435,0.54625 0,0.19125 0.13625,0.3225 0.3375,0.3225 0.34125,0 3.34875,-2.1975 5.34125,-6.29375 1.70875,-3.545 2.105,-7.12875 2.105,-9.84375 z"
       id="path3355"
       style="fill:#000000;fill-opacity:1;fill-rule:nonzero;stroke:none" />
    <path
       d="m 162.7,602.41095 0,-0.1175 -0.01,-0.1025 -0.0238,-0.0975 -0.01,-0.1075 -0.0337,-0.0925 -0.03,-0.0875 -0.0337,-0.0937 -0.0387,-0.0875 -0.045,-0.0725 -0.0525,-0.0838 -0.0538,-0.0775 -0.0637,-0.0738 -0.1275,-0.1275 -0.0725,-0.0625 -0.0737,-0.0538 -0.0788,-0.0638 -0.0825,-0.0537 -0.17125,-0.0925 -0.18,-0.0887 -0.2,-0.0825 -0.205,-0.0637 -0.21,-0.0638 -0.225,-0.0438 -0.235,-0.0437 -0.22375,-0.0388 -0.245,-0.0337 -0.23375,-0.02 -0.24375,-0.025 -0.23,-0.009 -0.24875,-0.01 -0.23,0 -0.23375,-0.01 -0.225,0 -0.225,0.01 -0.42375,0 -0.19125,0.01 -20.48375,0 c -2.64625,0 -7.3575,1.5325 -8.2075,4.39875 0.0975,0.3225 0.215,0.37625 0.5325,0.37625 1.1575,0 2.75375,-0.9475 3.48625,-1.74375 1.65,0 3.2425,-0.11625 4.8775,-0.11625 l 3.27625,0 c 0,0 -0.215,0.95625 -0.215,1.005 -2.06,9.6875 -5.185,17.90125 -7.50375,23.09125 -0.3175,0.7025 -3.18875,7.3 -3.92125,7.94 -2.33875,0 -4.0925,-1.265 -5.03875,-3.32625 -0.15625,-0.33125 -0.15625,-0.53125 -0.5325,-0.53125 -1.21125,0 -4.13625,1.69875 -4.13625,2.5925 0,0.0975 0.0537,0.215 0.1175,0.3175 0.9475,2.49 3.33,3.91125 5.9325,3.91125 2.69,0 5.815,-1.95375 7.505,-3.91125 1.7675,-2.0075 5.25375,-10.70375 6.63625,-13.8725 l 10.21375,0 c -0.0538,0.0537 -0.10625,0.0975 -0.10625,0.15125 0,0.21 0.31625,0.38125 0.53125,0.38125 1.1675,0 4.19,-1.49875 4.19,-3.135 0,-0.37125 -0.36125,-0.3175 -1.01125,-0.3175 l -12.715,0 c 1.3825,-4.765 3.17875,-9.41875 4.14625,-14.29625 l 6.9825,0 c 1.3175,0 5.03875,-0.26875 5.98625,0.9125 0.0975,0.3075 -0.0538,0.84 0.0975,1.10375 0.1175,0.1075 0.26375,0.15125 0.435,0.15125 1.26375,0 4.135,-1.59625 4.135,-3.0225 z"
       id="path3357"
       style="fill:#000000;fill-opacity:1;fill-rule:nonzero;stroke:none" />
    <path
       d="m 158.745,650.44845 -0.0238,0.0538 -0.02,0.0875 -0.01,0.0538 0,0.0387 -0.01,0.035 -0.009,0.0387 -0.015,0.0438 0,0.0337 -0.01,0.03 0,0.0338 -0.01,0.03 0,0.0338 -0.01,0.02 0,0.0538 -0.009,0.0187 0,0.0788 -0.01,0.009 0,0.0838 c 0,0.82 0.66875,1.18125 1.24,1.18125 1.3525,0 1.62625,-1.1175 1.895,-2.285 0.5175,-1.93375 1.5625,-6.1575 1.9325,-7.55875 0.3275,0.5425 1.50875,2.285 4.0625,2.285 l -0.0337,-1.03 c -2.73,0 -3.55,-2.73375 -3.55,-3.2225 0,-0.0825 0.21,-0.89375 0.3275,-1.32875 1.1175,-4.56 1.3325,-5.41 2.4175,-7.035 1.3275,-1.96875 3.1875,-3.0425 4.6625,-3.0425 1.50875,0 2.95875,1.07375 2.95875,3.73 0,1.71375 -0.97125,5.81625 -2.10875,7.67625 -1.7,2.6275 -3.56,3.2225 -4.7075,3.2225 l 0.0337,1.03 c 4.75125,0 9.79,-5.02875 9.79,-10.44875 0,-3.91125 -2.62625,-6.24 -5.9025,-6.24 -3.61375,0 -8.09625,3.16875 -9.395,8.4075 l -3.48625,13.8825 z"
       id="path3359"
       style="fill:#000000;fill-opacity:1;fill-rule:nonzero;stroke:none" />
    <path
       d="m 519.575,528.97345 0,-0.0687 -0.005,-0.0625 -0.0138,-0.0588 -0.005,-0.0638 -0.015,-0.0588 -0.02,-0.0487 -0.0137,-0.0588 -0.05,-0.0975 -0.0287,-0.0488 -0.0238,-0.0438 -0.035,-0.0437 -0.0675,-0.0788 -0.045,-0.0388 -0.0388,-0.03 -0.0388,-0.0387 -0.0437,-0.0288 -0.0937,-0.0588 -0.205,-0.1025 -0.1075,-0.0387 -0.11625,-0.04 -0.1175,-0.0237 -0.1275,-0.025 -0.11625,-0.0238 -0.1325,-0.02 -0.12625,-0.015 -0.1325,-0.009 -0.12125,-0.01 -0.1325,-0.005 -0.1275,0 -0.12625,-0.005 -0.1175,0 -0.12125,0.005 -0.225,0 -0.1025,0.005 -10.99125,0 c -1.41625,0 -3.945,0.9175 -4.4,2.63125 0.0487,0.19125 0.1125,0.225 0.28375,0.225 0.625,0 1.47875,-0.56625 1.87,-1.045 0.88375,0 1.73875,-0.0688 2.6175,-0.0688 l 1.7575,0 c 0,0 -0.1125,0.57125 -0.1125,0.60625 -1.10875,5.78625 -2.7825,10.6975 -4.02875,13.79875 -0.17,0.42 -1.70875,4.365 -2.10375,4.74625 -1.255,0 -2.1925,-0.7575 -2.7,-1.9925 -0.0888,-0.195 -0.0888,-0.3175 -0.28875,-0.3175 -0.64875,0 -2.21625,1.02 -2.21625,1.5525 0,0.0588 0.0287,0.1275 0.0637,0.19 0.5075,1.485 1.78625,2.34 3.1825,2.34 1.44125,0 3.11625,-1.1725 4.02375,-2.34 0.9475,-1.2 2.8175,-6.39625 3.56,-8.29 l 5.47875,0 c -0.03,0.0287 -0.0587,0.0587 -0.0587,0.0875 0,0.1275 0.17,0.23 0.2875,0.23 0.625,0 2.24625,-0.89875 2.24625,-1.875 0,-0.22 -0.195,-0.19125 -0.54125,-0.19125 l -6.8225,0 c 0.7425,-2.84625 1.705,-5.63 2.2275,-8.545 l 3.745,0 c 0.7075,0 2.7,-0.16125 3.2075,0.5475 0.0537,0.185 -0.0288,0.5025 0.0537,0.65875 0.0638,0.0638 0.14125,0.0875 0.235,0.0875 0.67875,0 2.21625,-0.95125 2.21625,-1.80125 z"
       id="path3361"
       style="fill:#000000;fill-opacity:1;fill-rule:nonzero;stroke:none" />
    <path
       d="m 517.45125,557.6847 -0.01,0.0287 -0.005,0.025 -0.01,0.0588 0,0.0238 -0.009,0.02 -0.005,0.0287 -0.005,0.025 0,0.0188 -0.005,0.02 0,0.015 -0.005,0.0188 0,0.02 -0.005,0.015 0,0.0287 -0.01,0.015 0,0.0438 -0.005,0.005 0,0.0538 c 0,0.48875 0.36125,0.7025 0.67,0.7025 0.7225,0 0.87375,-0.66375 1.015,-1.36625 0.27875,-1.1525 0.835,-3.6775 1.035,-4.5175 0.17625,0.3275 0.81125,1.3675 2.1775,1.3675 l -0.0137,-0.615 c -1.465,0 -1.905,-1.63625 -1.905,-1.92375 0,-0.0537 0.1125,-0.5375 0.17625,-0.79625 0.6,-2.725 0.7125,-3.2325 1.29375,-4.20375 0.7125,-1.1775 1.70875,-1.82125 2.505,-1.82125 0.805,0 1.58125,0.64375 1.58125,2.23125 0,1.025 -0.5175,3.47625 -1.1275,4.59 -0.9125,1.5675 -1.90875,1.92375 -2.52375,1.92375 l 0.0137,0.615 c 2.54875,0 5.25375,-3.0025 5.25375,-6.245 0,-2.33875 -1.41,-3.73 -3.16375,-3.73 -1.93875,0 -4.345,1.89375 -5.04375,5.02375 l -1.87,8.30125 z"
       id="path3363"
       style="fill:#000000;fill-opacity:1;fill-rule:nonzero;stroke:none" />
  </g>
</svg>
